<svg width="535" height="518" viewBox="0 0 535 518" fill="none" xmlns="http://www.w3.org/2000/svg">
<path d="M2.7895e-05 2.7702C0.764997 2.7702 1.38513 2.15007 1.38513 1.3851C1.38513 0.62013 0.764997 0 2.7895e-05 0C-0.764941 0 -1.38507 0.62013 -1.38507 1.3851C-1.38507 2.15007 -0.764941 2.7702 2.7895e-05 2.7702Z" fill="white" fill-opacity="0.13"/>
<path d="M29.6111 2.7702C30.3761 2.7702 30.9962 2.15007 30.9962 1.3851C30.9962 0.62013 30.3761 0 29.6111 0C28.8461 0 28.226 0.62013 28.226 1.3851C28.226 2.15007 28.8461 2.7702 29.6111 2.7702Z" fill="white" fill-opacity="0.13"/>
<path d="M59.2223 2.7702C59.9872 2.7702 60.6074 2.15007 60.6074 1.3851C60.6074 0.62013 59.9872 0 59.2223 0C58.4573 0 57.8372 0.62013 57.8372 1.3851C57.8372 2.15007 58.4573 2.7702 59.2223 2.7702Z" fill="white" fill-opacity="0.13"/>
<path d="M88.8333 2.7702C89.5983 2.7702 90.2184 2.15007 90.2184 1.3851C90.2184 0.62013 89.5983 0 88.8333 0C88.0684 0 87.4482 0.62013 87.4482 1.3851C87.4482 2.15007 88.0684 2.7702 88.8333 2.7702Z" fill="white" fill-opacity="0.13"/>
<path d="M118.444 2.7702C119.209 2.7702 119.83 2.15007 119.83 1.3851C119.83 0.62013 119.209 0 118.444 0C117.68 0 117.059 0.62013 117.059 1.3851C117.059 2.15007 117.68 2.7702 118.444 2.7702Z" fill="white" fill-opacity="0.13"/>
<path d="M148.056 2.7702C148.821 2.7702 149.441 2.15007 149.441 1.3851C149.441 0.62013 148.821 0 148.056 0C147.291 0 146.67 0.62013 146.67 1.3851C146.67 2.15007 147.291 2.7702 148.056 2.7702Z" fill="white" fill-opacity="0.13"/>
<path d="M177.667 2.7702C178.432 2.7702 179.052 2.15007 179.052 1.3851C179.052 0.62013 178.432 0 177.667 0C176.902 0 176.282 0.62013 176.282 1.3851C176.282 2.15007 176.902 2.7702 177.667 2.7702Z" fill="white" fill-opacity="0.13"/>
<path d="M207.278 2.7702C208.043 2.7702 208.663 2.15007 208.663 1.3851C208.663 0.62013 208.043 0 207.278 0C206.513 0 205.893 0.62013 205.893 1.3851C205.893 2.15007 206.513 2.7702 207.278 2.7702Z" fill="white" fill-opacity="0.13"/>
<path d="M236.889 2.7702C237.654 2.7702 238.274 2.15007 238.274 1.3851C238.274 0.62013 237.654 0 236.889 0C236.124 0 235.504 0.62013 235.504 1.3851C235.504 2.15007 236.124 2.7702 236.889 2.7702Z" fill="white" fill-opacity="0.13"/>
<path d="M266.5 2.7702C267.265 2.7702 267.885 2.15007 267.885 1.3851C267.885 0.62013 267.265 0 266.5 0C265.735 0 265.115 0.62013 265.115 1.3851C265.115 2.15007 265.735 2.7702 266.5 2.7702Z" fill="white" fill-opacity="0.13"/>
<path d="M296.111 2.7702C296.876 2.7702 297.496 2.15007 297.496 1.3851C297.496 0.62013 296.876 0 296.111 0C295.346 0 294.726 0.62013 294.726 1.3851C294.726 2.15007 295.346 2.7702 296.111 2.7702Z" fill="white" fill-opacity="0.13"/>
<path d="M325.722 2.7702C326.487 2.7702 327.107 2.15007 327.107 1.3851C327.107 0.62013 326.487 0 325.722 0C324.957 0 324.337 0.62013 324.337 1.3851C324.337 2.15007 324.957 2.7702 325.722 2.7702Z" fill="white" fill-opacity="0.13"/>
<path d="M355.333 2.7702C356.098 2.7702 356.718 2.15007 356.718 1.3851C356.718 0.62013 356.098 0 355.333 0C354.568 0 353.948 0.62013 353.948 1.3851C353.948 2.15007 354.568 2.7702 355.333 2.7702Z" fill="white" fill-opacity="0.13"/>
<path d="M384.944 2.7702C385.709 2.7702 386.33 2.15007 386.33 1.3851C386.33 0.62013 385.709 0 384.944 0C384.179 0 383.559 0.62013 383.559 1.3851C383.559 2.15007 384.179 2.7702 384.944 2.7702Z" fill="white" fill-opacity="0.13"/>
<path d="M414.556 2.7702C415.321 2.7702 415.941 2.15007 415.941 1.3851C415.941 0.62013 415.321 0 414.556 0C413.791 0 413.17 0.62013 413.17 1.3851C413.17 2.15007 413.791 2.7702 414.556 2.7702Z" fill="white" fill-opacity="0.13"/>
<path d="M444.167 2.7702C444.932 2.7702 445.552 2.15007 445.552 1.3851C445.552 0.62013 444.932 0 444.167 0C443.402 0 442.782 0.62013 442.782 1.3851C442.782 2.15007 443.402 2.7702 444.167 2.7702Z" fill="white" fill-opacity="0.13"/>
<path d="M473.778 2.7702C474.543 2.7702 475.163 2.15007 475.163 1.3851C475.163 0.62013 474.543 0 473.778 0C473.013 0 472.393 0.62013 472.393 1.3851C472.393 2.15007 473.013 2.7702 473.778 2.7702Z" fill="white" fill-opacity="0.13"/>
<path d="M503.389 2.7702C504.154 2.7702 504.774 2.15007 504.774 1.3851C504.774 0.62013 504.154 0 503.389 0C502.624 0 502.004 0.62013 502.004 1.3851C502.004 2.15007 502.624 2.7702 503.389 2.7702Z" fill="white" fill-opacity="0.13"/>
<path d="M533 2.7702C533.765 2.7702 534.385 2.15007 534.385 1.3851C534.385 0.62013 533.765 0 533 0C532.235 0 531.615 0.62013 531.615 1.3851C531.615 2.15007 532.235 2.7702 533 2.7702Z" fill="white" fill-opacity="0.13"/>
<path d="M2.7895e-05 32.3813C0.764997 32.3813 1.38513 31.7612 1.38513 30.9962C1.38513 30.2312 0.764997 29.6111 2.7895e-05 29.6111C-0.764941 29.6111 -1.38507 30.2312 -1.38507 30.9962C-1.38507 31.7612 -0.764941 32.3813 2.7895e-05 32.3813Z" fill="white" fill-opacity="0.13"/>
<path d="M29.6111 32.3813C30.3761 32.3813 30.9962 31.7612 30.9962 30.9962C30.9962 30.2312 30.3761 29.6111 29.6111 29.6111C28.8461 29.6111 28.226 30.2312 28.226 30.9962C28.226 31.7612 28.8461 32.3813 29.6111 32.3813Z" fill="white" fill-opacity="0.13"/>
<path d="M59.2223 32.3813C59.9872 32.3813 60.6074 31.7612 60.6074 30.9962C60.6074 30.2312 59.9872 29.6111 59.2223 29.6111C58.4573 29.6111 57.8372 30.2312 57.8372 30.9962C57.8372 31.7612 58.4573 32.3813 59.2223 32.3813Z" fill="white" fill-opacity="0.13"/>
<path d="M88.8333 32.3813C89.5983 32.3813 90.2184 31.7612 90.2184 30.9962C90.2184 30.2312 89.5983 29.6111 88.8333 29.6111C88.0684 29.6111 87.4482 30.2312 87.4482 30.9962C87.4482 31.7612 88.0684 32.3813 88.8333 32.3813Z" fill="white" fill-opacity="0.13"/>
<path d="M118.444 32.3813C119.209 32.3813 119.83 31.7612 119.83 30.9962C119.83 30.2312 119.209 29.6111 118.444 29.6111C117.68 29.6111 117.059 30.2312 117.059 30.9962C117.059 31.7612 117.68 32.3813 118.444 32.3813Z" fill="white" fill-opacity="0.13"/>
<path d="M148.056 32.3813C148.821 32.3813 149.441 31.7612 149.441 30.9962C149.441 30.2312 148.821 29.6111 148.056 29.6111C147.291 29.6111 146.67 30.2312 146.67 30.9962C146.67 31.7612 147.291 32.3813 148.056 32.3813Z" fill="white" fill-opacity="0.13"/>
<path d="M177.667 32.3813C178.432 32.3813 179.052 31.7612 179.052 30.9962C179.052 30.2312 178.432 29.6111 177.667 29.6111C176.902 29.6111 176.282 30.2312 176.282 30.9962C176.282 31.7612 176.902 32.3813 177.667 32.3813Z" fill="white" fill-opacity="0.13"/>
<path d="M207.278 32.3813C208.043 32.3813 208.663 31.7612 208.663 30.9962C208.663 30.2312 208.043 29.6111 207.278 29.6111C206.513 29.6111 205.893 30.2312 205.893 30.9962C205.893 31.7612 206.513 32.3813 207.278 32.3813Z" fill="white" fill-opacity="0.13"/>
<path d="M236.889 32.3813C237.654 32.3813 238.274 31.7612 238.274 30.9962C238.274 30.2312 237.654 29.6111 236.889 29.6111C236.124 29.6111 235.504 30.2312 235.504 30.9962C235.504 31.7612 236.124 32.3813 236.889 32.3813Z" fill="white" fill-opacity="0.13"/>
<path d="M266.5 32.3813C267.265 32.3813 267.885 31.7612 267.885 30.9962C267.885 30.2312 267.265 29.6111 266.5 29.6111C265.735 29.6111 265.115 30.2312 265.115 30.9962C265.115 31.7612 265.735 32.3813 266.5 32.3813Z" fill="white" fill-opacity="0.13"/>
<path d="M296.111 32.3813C296.876 32.3813 297.496 31.7612 297.496 30.9962C297.496 30.2312 296.876 29.6111 296.111 29.6111C295.346 29.6111 294.726 30.2312 294.726 30.9962C294.726 31.7612 295.346 32.3813 296.111 32.3813Z" fill="white" fill-opacity="0.13"/>
<path d="M325.722 32.3813C326.487 32.3813 327.107 31.7612 327.107 30.9962C327.107 30.2312 326.487 29.6111 325.722 29.6111C324.957 29.6111 324.337 30.2312 324.337 30.9962C324.337 31.7612 324.957 32.3813 325.722 32.3813Z" fill="white" fill-opacity="0.13"/>
<path d="M355.333 32.3813C356.098 32.3813 356.718 31.7612 356.718 30.9962C356.718 30.2312 356.098 29.6111 355.333 29.6111C354.568 29.6111 353.948 30.2312 353.948 30.9962C353.948 31.7612 354.568 32.3813 355.333 32.3813Z" fill="white" fill-opacity="0.13"/>
<path d="M384.944 32.3813C385.709 32.3813 386.33 31.7612 386.33 30.9962C386.33 30.2312 385.709 29.6111 384.944 29.6111C384.179 29.6111 383.559 30.2312 383.559 30.9962C383.559 31.7612 384.179 32.3813 384.944 32.3813Z" fill="white" fill-opacity="0.13"/>
<path d="M414.556 32.3813C415.321 32.3813 415.941 31.7612 415.941 30.9962C415.941 30.2312 415.321 29.6111 414.556 29.6111C413.791 29.6111 413.17 30.2312 413.17 30.9962C413.17 31.7612 413.791 32.3813 414.556 32.3813Z" fill="white" fill-opacity="0.13"/>
<path d="M444.167 32.3813C444.932 32.3813 445.552 31.7612 445.552 30.9962C445.552 30.2312 444.932 29.6111 444.167 29.6111C443.402 29.6111 442.782 30.2312 442.782 30.9962C442.782 31.7612 443.402 32.3813 444.167 32.3813Z" fill="white" fill-opacity="0.13"/>
<path d="M473.778 32.3813C474.543 32.3813 475.163 31.7612 475.163 30.9962C475.163 30.2312 474.543 29.6111 473.778 29.6111C473.013 29.6111 472.393 30.2312 472.393 30.9962C472.393 31.7612 473.013 32.3813 473.778 32.3813Z" fill="white" fill-opacity="0.13"/>
<path d="M503.389 32.3813C504.154 32.3813 504.774 31.7612 504.774 30.9962C504.774 30.2312 504.154 29.6111 503.389 29.6111C502.624 29.6111 502.004 30.2312 502.004 30.9962C502.004 31.7612 502.624 32.3813 503.389 32.3813Z" fill="white" fill-opacity="0.13"/>
<path d="M533 32.3813C533.765 32.3813 534.385 31.7612 534.385 30.9962C534.385 30.2312 533.765 29.6111 533 29.6111C532.235 29.6111 531.615 30.2312 531.615 30.9962C531.615 31.7612 532.235 32.3813 533 32.3813Z" fill="white" fill-opacity="0.13"/>
<path d="M2.7895e-05 61.9924C0.764997 61.9924 1.38513 61.3723 1.38513 60.6073C1.38513 59.8424 0.764997 59.2222 2.7895e-05 59.2222C-0.764941 59.2222 -1.38507 59.8424 -1.38507 60.6073C-1.38507 61.3723 -0.764941 61.9924 2.7895e-05 61.9924Z" fill="white" fill-opacity="0.13"/>
<path d="M29.6111 61.9924C30.3761 61.9924 30.9962 61.3723 30.9962 60.6073C30.9962 59.8424 30.3761 59.2222 29.6111 59.2222C28.8461 59.2222 28.226 59.8424 28.226 60.6073C28.226 61.3723 28.8461 61.9924 29.6111 61.9924Z" fill="white" fill-opacity="0.13"/>
<path d="M59.2223 61.9924C59.9872 61.9924 60.6074 61.3723 60.6074 60.6073C60.6074 59.8424 59.9872 59.2222 59.2223 59.2222C58.4573 59.2222 57.8372 59.8424 57.8372 60.6073C57.8372 61.3723 58.4573 61.9924 59.2223 61.9924Z" fill="white" fill-opacity="0.13"/>
<path d="M88.8333 61.9924C89.5983 61.9924 90.2184 61.3723 90.2184 60.6073C90.2184 59.8424 89.5983 59.2222 88.8333 59.2222C88.0684 59.2222 87.4482 59.8424 87.4482 60.6073C87.4482 61.3723 88.0684 61.9924 88.8333 61.9924Z" fill="white" fill-opacity="0.13"/>
<path d="M118.444 61.9924C119.209 61.9924 119.83 61.3723 119.83 60.6073C119.83 59.8424 119.209 59.2222 118.444 59.2222C117.68 59.2222 117.059 59.8424 117.059 60.6073C117.059 61.3723 117.68 61.9924 118.444 61.9924Z" fill="white" fill-opacity="0.13"/>
<path d="M148.056 61.9924C148.821 61.9924 149.441 61.3723 149.441 60.6073C149.441 59.8424 148.821 59.2222 148.056 59.2222C147.291 59.2222 146.67 59.8424 146.67 60.6073C146.67 61.3723 147.291 61.9924 148.056 61.9924Z" fill="white" fill-opacity="0.13"/>
<path d="M177.667 61.9924C178.432 61.9924 179.052 61.3723 179.052 60.6073C179.052 59.8424 178.432 59.2222 177.667 59.2222C176.902 59.2222 176.282 59.8424 176.282 60.6073C176.282 61.3723 176.902 61.9924 177.667 61.9924Z" fill="white" fill-opacity="0.13"/>
<path d="M207.278 61.9924C208.043 61.9924 208.663 61.3723 208.663 60.6073C208.663 59.8424 208.043 59.2222 207.278 59.2222C206.513 59.2222 205.893 59.8424 205.893 60.6073C205.893 61.3723 206.513 61.9924 207.278 61.9924Z" fill="white" fill-opacity="0.13"/>
<path d="M236.889 61.9924C237.654 61.9924 238.274 61.3723 238.274 60.6073C238.274 59.8424 237.654 59.2222 236.889 59.2222C236.124 59.2222 235.504 59.8424 235.504 60.6073C235.504 61.3723 236.124 61.9924 236.889 61.9924Z" fill="white" fill-opacity="0.13"/>
<path d="M266.5 61.9924C267.265 61.9924 267.885 61.3723 267.885 60.6073C267.885 59.8424 267.265 59.2222 266.5 59.2222C265.735 59.2222 265.115 59.8424 265.115 60.6073C265.115 61.3723 265.735 61.9924 266.5 61.9924Z" fill="white" fill-opacity="0.13"/>
<path d="M296.111 61.9924C296.876 61.9924 297.496 61.3723 297.496 60.6073C297.496 59.8424 296.876 59.2222 296.111 59.2222C295.346 59.2222 294.726 59.8424 294.726 60.6073C294.726 61.3723 295.346 61.9924 296.111 61.9924Z" fill="white" fill-opacity="0.13"/>
<path d="M325.722 61.9924C326.487 61.9924 327.107 61.3723 327.107 60.6073C327.107 59.8424 326.487 59.2222 325.722 59.2222C324.957 59.2222 324.337 59.8424 324.337 60.6073C324.337 61.3723 324.957 61.9924 325.722 61.9924Z" fill="white" fill-opacity="0.13"/>
<path d="M355.333 61.9924C356.098 61.9924 356.718 61.3723 356.718 60.6073C356.718 59.8424 356.098 59.2222 355.333 59.2222C354.568 59.2222 353.948 59.8424 353.948 60.6073C353.948 61.3723 354.568 61.9924 355.333 61.9924Z" fill="white" fill-opacity="0.13"/>
<path d="M384.944 61.9924C385.709 61.9924 386.33 61.3723 386.33 60.6073C386.33 59.8424 385.709 59.2222 384.944 59.2222C384.179 59.2222 383.559 59.8424 383.559 60.6073C383.559 61.3723 384.179 61.9924 384.944 61.9924Z" fill="white" fill-opacity="0.13"/>
<path d="M414.556 61.9924C415.321 61.9924 415.941 61.3723 415.941 60.6073C415.941 59.8424 415.321 59.2222 414.556 59.2222C413.791 59.2222 413.17 59.8424 413.17 60.6073C413.17 61.3723 413.791 61.9924 414.556 61.9924Z" fill="white" fill-opacity="0.13"/>
<path d="M444.167 61.9924C444.932 61.9924 445.552 61.3723 445.552 60.6073C445.552 59.8424 444.932 59.2222 444.167 59.2222C443.402 59.2222 442.782 59.8424 442.782 60.6073C442.782 61.3723 443.402 61.9924 444.167 61.9924Z" fill="white" fill-opacity="0.13"/>
<path d="M473.778 61.9924C474.543 61.9924 475.163 61.3723 475.163 60.6073C475.163 59.8424 474.543 59.2222 473.778 59.2222C473.013 59.2222 472.393 59.8424 472.393 60.6073C472.393 61.3723 473.013 61.9924 473.778 61.9924Z" fill="white" fill-opacity="0.13"/>
<path d="M503.389 61.9924C504.154 61.9924 504.774 61.3723 504.774 60.6073C504.774 59.8424 504.154 59.2222 503.389 59.2222C502.624 59.2222 502.004 59.8424 502.004 60.6073C502.004 61.3723 502.624 61.9924 503.389 61.9924Z" fill="white" fill-opacity="0.13"/>
<path d="M533 61.9924C533.765 61.9924 534.385 61.3723 534.385 60.6073C534.385 59.8424 533.765 59.2222 533 59.2222C532.235 59.2222 531.615 59.8424 531.615 60.6073C531.615 61.3723 532.235 61.9924 533 61.9924Z" fill="white" fill-opacity="0.13"/>
<path d="M2.7895e-05 91.6035C0.764997 91.6035 1.38513 90.9834 1.38513 90.2184C1.38513 89.4535 0.764997 88.8333 2.7895e-05 88.8333C-0.764941 88.8333 -1.38507 89.4535 -1.38507 90.2184C-1.38507 90.9834 -0.764941 91.6035 2.7895e-05 91.6035Z" fill="white" fill-opacity="0.13"/>
<path d="M29.6111 91.6035C30.3761 91.6035 30.9962 90.9834 30.9962 90.2184C30.9962 89.4535 30.3761 88.8333 29.6111 88.8333C28.8461 88.8333 28.226 89.4535 28.226 90.2184C28.226 90.9834 28.8461 91.6035 29.6111 91.6035Z" fill="white" fill-opacity="0.13"/>
<path d="M59.2223 91.6035C59.9872 91.6035 60.6074 90.9834 60.6074 90.2184C60.6074 89.4535 59.9872 88.8333 59.2223 88.8333C58.4573 88.8333 57.8372 89.4535 57.8372 90.2184C57.8372 90.9834 58.4573 91.6035 59.2223 91.6035Z" fill="white" fill-opacity="0.13"/>
<path d="M88.8333 91.6035C89.5983 91.6035 90.2184 90.9834 90.2184 90.2184C90.2184 89.4535 89.5983 88.8333 88.8333 88.8333C88.0684 88.8333 87.4482 89.4535 87.4482 90.2184C87.4482 90.9834 88.0684 91.6035 88.8333 91.6035Z" fill="white" fill-opacity="0.13"/>
<path d="M118.444 91.6035C119.209 91.6035 119.83 90.9834 119.83 90.2184C119.83 89.4535 119.209 88.8333 118.444 88.8333C117.68 88.8333 117.059 89.4535 117.059 90.2184C117.059 90.9834 117.68 91.6035 118.444 91.6035Z" fill="white" fill-opacity="0.13"/>
<path d="M148.056 91.6035C148.821 91.6035 149.441 90.9834 149.441 90.2184C149.441 89.4535 148.821 88.8333 148.056 88.8333C147.291 88.8333 146.67 89.4535 146.67 90.2184C146.67 90.9834 147.291 91.6035 148.056 91.6035Z" fill="white" fill-opacity="0.13"/>
<path d="M177.667 91.6035C178.432 91.6035 179.052 90.9834 179.052 90.2184C179.052 89.4535 178.432 88.8333 177.667 88.8333C176.902 88.8333 176.282 89.4535 176.282 90.2184C176.282 90.9834 176.902 91.6035 177.667 91.6035Z" fill="white" fill-opacity="0.13"/>
<path d="M207.278 91.6035C208.043 91.6035 208.663 90.9834 208.663 90.2184C208.663 89.4535 208.043 88.8333 207.278 88.8333C206.513 88.8333 205.893 89.4535 205.893 90.2184C205.893 90.9834 206.513 91.6035 207.278 91.6035Z" fill="white" fill-opacity="0.13"/>
<path d="M236.889 91.6035C237.654 91.6035 238.274 90.9834 238.274 90.2184C238.274 89.4535 237.654 88.8333 236.889 88.8333C236.124 88.8333 235.504 89.4535 235.504 90.2184C235.504 90.9834 236.124 91.6035 236.889 91.6035Z" fill="white" fill-opacity="0.13"/>
<path d="M266.5 91.6035C267.265 91.6035 267.885 90.9834 267.885 90.2184C267.885 89.4535 267.265 88.8333 266.5 88.8333C265.735 88.8333 265.115 89.4535 265.115 90.2184C265.115 90.9834 265.735 91.6035 266.5 91.6035Z" fill="white" fill-opacity="0.13"/>
<path d="M296.111 91.6035C296.876 91.6035 297.496 90.9834 297.496 90.2184C297.496 89.4535 296.876 88.8333 296.111 88.8333C295.346 88.8333 294.726 89.4535 294.726 90.2184C294.726 90.9834 295.346 91.6035 296.111 91.6035Z" fill="white" fill-opacity="0.13"/>
<path d="M325.722 91.6035C326.487 91.6035 327.107 90.9834 327.107 90.2184C327.107 89.4535 326.487 88.8333 325.722 88.8333C324.957 88.8333 324.337 89.4535 324.337 90.2184C324.337 90.9834 324.957 91.6035 325.722 91.6035Z" fill="white" fill-opacity="0.13"/>
<path d="M355.333 91.6035C356.098 91.6035 356.718 90.9834 356.718 90.2184C356.718 89.4535 356.098 88.8333 355.333 88.8333C354.568 88.8333 353.948 89.4535 353.948 90.2184C353.948 90.9834 354.568 91.6035 355.333 91.6035Z" fill="white" fill-opacity="0.13"/>
<path d="M384.944 91.6035C385.709 91.6035 386.33 90.9834 386.33 90.2184C386.33 89.4535 385.709 88.8333 384.944 88.8333C384.179 88.8333 383.559 89.4535 383.559 90.2184C383.559 90.9834 384.179 91.6035 384.944 91.6035Z" fill="white" fill-opacity="0.13"/>
<path d="M414.556 91.6035C415.321 91.6035 415.941 90.9834 415.941 90.2184C415.941 89.4535 415.321 88.8333 414.556 88.8333C413.791 88.8333 413.17 89.4535 413.17 90.2184C413.17 90.9834 413.791 91.6035 414.556 91.6035Z" fill="white" fill-opacity="0.13"/>
<path d="M444.167 91.6035C444.932 91.6035 445.552 90.9834 445.552 90.2184C445.552 89.4535 444.932 88.8333 444.167 88.8333C443.402 88.8333 442.782 89.4535 442.782 90.2184C442.782 90.9834 443.402 91.6035 444.167 91.6035Z" fill="white" fill-opacity="0.13"/>
<path d="M473.778 91.6035C474.543 91.6035 475.163 90.9834 475.163 90.2184C475.163 89.4535 474.543 88.8333 473.778 88.8333C473.013 88.8333 472.393 89.4535 472.393 90.2184C472.393 90.9834 473.013 91.6035 473.778 91.6035Z" fill="white" fill-opacity="0.13"/>
<path d="M503.389 91.6035C504.154 91.6035 504.774 90.9834 504.774 90.2184C504.774 89.4535 504.154 88.8333 503.389 88.8333C502.624 88.8333 502.004 89.4535 502.004 90.2184C502.004 90.9834 502.624 91.6035 503.389 91.6035Z" fill="white" fill-opacity="0.13"/>
<path d="M533 91.6035C533.765 91.6035 534.385 90.9834 534.385 90.2184C534.385 89.4535 533.765 88.8333 533 88.8333C532.235 88.8333 531.615 89.4535 531.615 90.2184C531.615 90.9834 532.235 91.6035 533 91.6035Z" fill="white" fill-opacity="0.13"/>
<path d="M2.7895e-05 121.215C0.764997 121.215 1.38513 120.595 1.38513 119.83C1.38513 119.065 0.764997 118.444 2.7895e-05 118.444C-0.764941 118.444 -1.38507 119.065 -1.38507 119.83C-1.38507 120.595 -0.764941 121.215 2.7895e-05 121.215Z" fill="white" fill-opacity="0.13"/>
<path d="M29.6111 121.215C30.3761 121.215 30.9962 120.595 30.9962 119.83C30.9962 119.065 30.3761 118.444 29.6111 118.444C28.8461 118.444 28.226 119.065 28.226 119.83C28.226 120.595 28.8461 121.215 29.6111 121.215Z" fill="white" fill-opacity="0.13"/>
<path d="M59.2223 121.215C59.9872 121.215 60.6074 120.595 60.6074 119.83C60.6074 119.065 59.9872 118.444 59.2223 118.444C58.4573 118.444 57.8372 119.065 57.8372 119.83C57.8372 120.595 58.4573 121.215 59.2223 121.215Z" fill="white" fill-opacity="0.13"/>
<path d="M88.8333 121.215C89.5983 121.215 90.2184 120.595 90.2184 119.83C90.2184 119.065 89.5983 118.444 88.8333 118.444C88.0684 118.444 87.4482 119.065 87.4482 119.83C87.4482 120.595 88.0684 121.215 88.8333 121.215Z" fill="white" fill-opacity="0.13"/>
<path d="M118.444 121.215C119.209 121.215 119.83 120.595 119.83 119.83C119.83 119.065 119.209 118.444 118.444 118.444C117.68 118.444 117.059 119.065 117.059 119.83C117.059 120.595 117.68 121.215 118.444 121.215Z" fill="white" fill-opacity="0.13"/>
<path d="M148.056 121.215C148.821 121.215 149.441 120.595 149.441 119.83C149.441 119.065 148.821 118.444 148.056 118.444C147.291 118.444 146.67 119.065 146.67 119.83C146.67 120.595 147.291 121.215 148.056 121.215Z" fill="white" fill-opacity="0.13"/>
<path d="M177.667 121.215C178.432 121.215 179.052 120.595 179.052 119.83C179.052 119.065 178.432 118.444 177.667 118.444C176.902 118.444 176.282 119.065 176.282 119.83C176.282 120.595 176.902 121.215 177.667 121.215Z" fill="white" fill-opacity="0.13"/>
<path d="M207.278 121.215C208.043 121.215 208.663 120.595 208.663 119.83C208.663 119.065 208.043 118.444 207.278 118.444C206.513 118.444 205.893 119.065 205.893 119.83C205.893 120.595 206.513 121.215 207.278 121.215Z" fill="white" fill-opacity="0.13"/>
<path d="M236.889 121.215C237.654 121.215 238.274 120.595 238.274 119.83C238.274 119.065 237.654 118.444 236.889 118.444C236.124 118.444 235.504 119.065 235.504 119.83C235.504 120.595 236.124 121.215 236.889 121.215Z" fill="white" fill-opacity="0.13"/>
<path d="M266.5 121.215C267.265 121.215 267.885 120.595 267.885 119.83C267.885 119.065 267.265 118.444 266.5 118.444C265.735 118.444 265.115 119.065 265.115 119.83C265.115 120.595 265.735 121.215 266.5 121.215Z" fill="white" fill-opacity="0.13"/>
<path d="M296.111 121.215C296.876 121.215 297.496 120.595 297.496 119.83C297.496 119.065 296.876 118.444 296.111 118.444C295.346 118.444 294.726 119.065 294.726 119.83C294.726 120.595 295.346 121.215 296.111 121.215Z" fill="white" fill-opacity="0.13"/>
<path d="M325.722 121.215C326.487 121.215 327.107 120.595 327.107 119.83C327.107 119.065 326.487 118.444 325.722 118.444C324.957 118.444 324.337 119.065 324.337 119.83C324.337 120.595 324.957 121.215 325.722 121.215Z" fill="white" fill-opacity="0.13"/>
<path d="M355.333 121.215C356.098 121.215 356.718 120.595 356.718 119.83C356.718 119.065 356.098 118.444 355.333 118.444C354.568 118.444 353.948 119.065 353.948 119.83C353.948 120.595 354.568 121.215 355.333 121.215Z" fill="white" fill-opacity="0.13"/>
<path d="M384.944 121.215C385.709 121.215 386.33 120.595 386.33 119.83C386.33 119.065 385.709 118.444 384.944 118.444C384.179 118.444 383.559 119.065 383.559 119.83C383.559 120.595 384.179 121.215 384.944 121.215Z" fill="white" fill-opacity="0.13"/>
<path d="M414.556 121.215C415.321 121.215 415.941 120.595 415.941 119.83C415.941 119.065 415.321 118.444 414.556 118.444C413.791 118.444 413.17 119.065 413.17 119.83C413.17 120.595 413.791 121.215 414.556 121.215Z" fill="white" fill-opacity="0.13"/>
<path d="M444.167 121.215C444.932 121.215 445.552 120.595 445.552 119.83C445.552 119.065 444.932 118.444 444.167 118.444C443.402 118.444 442.782 119.065 442.782 119.83C442.782 120.595 443.402 121.215 444.167 121.215Z" fill="white" fill-opacity="0.13"/>
<path d="M473.778 121.215C474.543 121.215 475.163 120.595 475.163 119.83C475.163 119.065 474.543 118.444 473.778 118.444C473.013 118.444 472.393 119.065 472.393 119.83C472.393 120.595 473.013 121.215 473.778 121.215Z" fill="white" fill-opacity="0.13"/>
<path d="M503.389 121.215C504.154 121.215 504.774 120.595 504.774 119.83C504.774 119.065 504.154 118.444 503.389 118.444C502.624 118.444 502.004 119.065 502.004 119.83C502.004 120.595 502.624 121.215 503.389 121.215Z" fill="white" fill-opacity="0.13"/>
<path d="M533 121.215C533.765 121.215 534.385 120.595 534.385 119.83C534.385 119.065 533.765 118.444 533 118.444C532.235 118.444 531.615 119.065 531.615 119.83C531.615 120.595 532.235 121.215 533 121.215Z" fill="white" fill-opacity="0.13"/>
<path d="M2.7895e-05 150.826C0.764997 150.826 1.38513 150.206 1.38513 149.441C1.38513 148.676 0.764997 148.056 2.7895e-05 148.056C-0.764941 148.056 -1.38507 148.676 -1.38507 149.441C-1.38507 150.206 -0.764941 150.826 2.7895e-05 150.826Z" fill="white" fill-opacity="0.13"/>
<path d="M29.6111 150.826C30.3761 150.826 30.9962 150.206 30.9962 149.441C30.9962 148.676 30.3761 148.056 29.6111 148.056C28.8461 148.056 28.226 148.676 28.226 149.441C28.226 150.206 28.8461 150.826 29.6111 150.826Z" fill="white" fill-opacity="0.13"/>
<path d="M59.2223 150.826C59.9872 150.826 60.6074 150.206 60.6074 149.441C60.6074 148.676 59.9872 148.056 59.2223 148.056C58.4573 148.056 57.8372 148.676 57.8372 149.441C57.8372 150.206 58.4573 150.826 59.2223 150.826Z" fill="white" fill-opacity="0.13"/>
<path d="M88.8333 150.826C89.5983 150.826 90.2184 150.206 90.2184 149.441C90.2184 148.676 89.5983 148.056 88.8333 148.056C88.0684 148.056 87.4482 148.676 87.4482 149.441C87.4482 150.206 88.0684 150.826 88.8333 150.826Z" fill="white" fill-opacity="0.13"/>
<path d="M118.444 150.826C119.209 150.826 119.83 150.206 119.83 149.441C119.83 148.676 119.209 148.056 118.444 148.056C117.68 148.056 117.059 148.676 117.059 149.441C117.059 150.206 117.68 150.826 118.444 150.826Z" fill="white" fill-opacity="0.13"/>
<path d="M148.056 150.826C148.821 150.826 149.441 150.206 149.441 149.441C149.441 148.676 148.821 148.056 148.056 148.056C147.291 148.056 146.67 148.676 146.67 149.441C146.67 150.206 147.291 150.826 148.056 150.826Z" fill="white" fill-opacity="0.13"/>
<path d="M177.667 150.826C178.432 150.826 179.052 150.206 179.052 149.441C179.052 148.676 178.432 148.056 177.667 148.056C176.902 148.056 176.282 148.676 176.282 149.441C176.282 150.206 176.902 150.826 177.667 150.826Z" fill="white" fill-opacity="0.13"/>
<path d="M207.278 150.826C208.043 150.826 208.663 150.206 208.663 149.441C208.663 148.676 208.043 148.056 207.278 148.056C206.513 148.056 205.893 148.676 205.893 149.441C205.893 150.206 206.513 150.826 207.278 150.826Z" fill="white" fill-opacity="0.13"/>
<path d="M236.889 150.826C237.654 150.826 238.274 150.206 238.274 149.441C238.274 148.676 237.654 148.056 236.889 148.056C236.124 148.056 235.504 148.676 235.504 149.441C235.504 150.206 236.124 150.826 236.889 150.826Z" fill="white" fill-opacity="0.13"/>
<path d="M266.5 150.826C267.265 150.826 267.885 150.206 267.885 149.441C267.885 148.676 267.265 148.056 266.5 148.056C265.735 148.056 265.115 148.676 265.115 149.441C265.115 150.206 265.735 150.826 266.5 150.826Z" fill="white" fill-opacity="0.13"/>
<path d="M296.111 150.826C296.876 150.826 297.496 150.206 297.496 149.441C297.496 148.676 296.876 148.056 296.111 148.056C295.346 148.056 294.726 148.676 294.726 149.441C294.726 150.206 295.346 150.826 296.111 150.826Z" fill="white" fill-opacity="0.13"/>
<path d="M325.722 150.826C326.487 150.826 327.107 150.206 327.107 149.441C327.107 148.676 326.487 148.056 325.722 148.056C324.957 148.056 324.337 148.676 324.337 149.441C324.337 150.206 324.957 150.826 325.722 150.826Z" fill="white" fill-opacity="0.13"/>
<path d="M355.333 150.826C356.098 150.826 356.718 150.206 356.718 149.441C356.718 148.676 356.098 148.056 355.333 148.056C354.568 148.056 353.948 148.676 353.948 149.441C353.948 150.206 354.568 150.826 355.333 150.826Z" fill="white" fill-opacity="0.13"/>
<path d="M384.944 150.826C385.709 150.826 386.33 150.206 386.33 149.441C386.33 148.676 385.709 148.056 384.944 148.056C384.179 148.056 383.559 148.676 383.559 149.441C383.559 150.206 384.179 150.826 384.944 150.826Z" fill="white" fill-opacity="0.13"/>
<path d="M414.556 150.826C415.321 150.826 415.941 150.206 415.941 149.441C415.941 148.676 415.321 148.056 414.556 148.056C413.791 148.056 413.17 148.676 413.17 149.441C413.17 150.206 413.791 150.826 414.556 150.826Z" fill="white" fill-opacity="0.13"/>
<path d="M444.167 150.826C444.932 150.826 445.552 150.206 445.552 149.441C445.552 148.676 444.932 148.056 444.167 148.056C443.402 148.056 442.782 148.676 442.782 149.441C442.782 150.206 443.402 150.826 444.167 150.826Z" fill="white" fill-opacity="0.13"/>
<path d="M473.778 150.826C474.543 150.826 475.163 150.206 475.163 149.441C475.163 148.676 474.543 148.056 473.778 148.056C473.013 148.056 472.393 148.676 472.393 149.441C472.393 150.206 473.013 150.826 473.778 150.826Z" fill="white" fill-opacity="0.13"/>
<path d="M503.389 150.826C504.154 150.826 504.774 150.206 504.774 149.441C504.774 148.676 504.154 148.056 503.389 148.056C502.624 148.056 502.004 148.676 502.004 149.441C502.004 150.206 502.624 150.826 503.389 150.826Z" fill="white" fill-opacity="0.13"/>
<path d="M533 150.826C533.765 150.826 534.385 150.206 534.385 149.441C534.385 148.676 533.765 148.056 533 148.056C532.235 148.056 531.615 148.676 531.615 149.441C531.615 150.206 532.235 150.826 533 150.826Z" fill="white" fill-opacity="0.13"/>
<path d="M2.7895e-05 180.437C0.764997 180.437 1.38513 179.817 1.38513 179.052C1.38513 178.287 0.764997 177.667 2.7895e-05 177.667C-0.764941 177.667 -1.38507 178.287 -1.38507 179.052C-1.38507 179.817 -0.764941 180.437 2.7895e-05 180.437Z" fill="white" fill-opacity="0.13"/>
<path d="M29.6111 180.437C30.3761 180.437 30.9962 179.817 30.9962 179.052C30.9962 178.287 30.3761 177.667 29.6111 177.667C28.8461 177.667 28.226 178.287 28.226 179.052C28.226 179.817 28.8461 180.437 29.6111 180.437Z" fill="white" fill-opacity="0.13"/>
<path d="M59.2223 180.437C59.9872 180.437 60.6074 179.817 60.6074 179.052C60.6074 178.287 59.9872 177.667 59.2223 177.667C58.4573 177.667 57.8372 178.287 57.8372 179.052C57.8372 179.817 58.4573 180.437 59.2223 180.437Z" fill="white" fill-opacity="0.13"/>
<path d="M88.8333 180.437C89.5983 180.437 90.2184 179.817 90.2184 179.052C90.2184 178.287 89.5983 177.667 88.8333 177.667C88.0684 177.667 87.4482 178.287 87.4482 179.052C87.4482 179.817 88.0684 180.437 88.8333 180.437Z" fill="white" fill-opacity="0.13"/>
<path d="M118.444 180.437C119.209 180.437 119.83 179.817 119.83 179.052C119.83 178.287 119.209 177.667 118.444 177.667C117.68 177.667 117.059 178.287 117.059 179.052C117.059 179.817 117.68 180.437 118.444 180.437Z" fill="white" fill-opacity="0.13"/>
<path d="M148.056 180.437C148.821 180.437 149.441 179.817 149.441 179.052C149.441 178.287 148.821 177.667 148.056 177.667C147.291 177.667 146.67 178.287 146.67 179.052C146.67 179.817 147.291 180.437 148.056 180.437Z" fill="white" fill-opacity="0.13"/>
<path d="M177.667 180.437C178.432 180.437 179.052 179.817 179.052 179.052C179.052 178.287 178.432 177.667 177.667 177.667C176.902 177.667 176.282 178.287 176.282 179.052C176.282 179.817 176.902 180.437 177.667 180.437Z" fill="white" fill-opacity="0.13"/>
<path d="M207.278 180.437C208.043 180.437 208.663 179.817 208.663 179.052C208.663 178.287 208.043 177.667 207.278 177.667C206.513 177.667 205.893 178.287 205.893 179.052C205.893 179.817 206.513 180.437 207.278 180.437Z" fill="white" fill-opacity="0.13"/>
<path d="M236.889 180.437C237.654 180.437 238.274 179.817 238.274 179.052C238.274 178.287 237.654 177.667 236.889 177.667C236.124 177.667 235.504 178.287 235.504 179.052C235.504 179.817 236.124 180.437 236.889 180.437Z" fill="white" fill-opacity="0.13"/>
<path d="M266.5 180.437C267.265 180.437 267.885 179.817 267.885 179.052C267.885 178.287 267.265 177.667 266.5 177.667C265.735 177.667 265.115 178.287 265.115 179.052C265.115 179.817 265.735 180.437 266.5 180.437Z" fill="white" fill-opacity="0.13"/>
<path d="M296.111 180.437C296.876 180.437 297.496 179.817 297.496 179.052C297.496 178.287 296.876 177.667 296.111 177.667C295.346 177.667 294.726 178.287 294.726 179.052C294.726 179.817 295.346 180.437 296.111 180.437Z" fill="white" fill-opacity="0.13"/>
<path d="M325.722 180.437C326.487 180.437 327.107 179.817 327.107 179.052C327.107 178.287 326.487 177.667 325.722 177.667C324.957 177.667 324.337 178.287 324.337 179.052C324.337 179.817 324.957 180.437 325.722 180.437Z" fill="white" fill-opacity="0.13"/>
<path d="M355.333 180.437C356.098 180.437 356.718 179.817 356.718 179.052C356.718 178.287 356.098 177.667 355.333 177.667C354.568 177.667 353.948 178.287 353.948 179.052C353.948 179.817 354.568 180.437 355.333 180.437Z" fill="white" fill-opacity="0.13"/>
<path d="M384.944 180.437C385.709 180.437 386.33 179.817 386.33 179.052C386.33 178.287 385.709 177.667 384.944 177.667C384.179 177.667 383.559 178.287 383.559 179.052C383.559 179.817 384.179 180.437 384.944 180.437Z" fill="white" fill-opacity="0.13"/>
<path d="M414.556 180.437C415.321 180.437 415.941 179.817 415.941 179.052C415.941 178.287 415.321 177.667 414.556 177.667C413.791 177.667 413.17 178.287 413.17 179.052C413.17 179.817 413.791 180.437 414.556 180.437Z" fill="white" fill-opacity="0.13"/>
<path d="M444.167 180.437C444.932 180.437 445.552 179.817 445.552 179.052C445.552 178.287 444.932 177.667 444.167 177.667C443.402 177.667 442.782 178.287 442.782 179.052C442.782 179.817 443.402 180.437 444.167 180.437Z" fill="white" fill-opacity="0.13"/>
<path d="M473.778 180.437C474.543 180.437 475.163 179.817 475.163 179.052C475.163 178.287 474.543 177.667 473.778 177.667C473.013 177.667 472.393 178.287 472.393 179.052C472.393 179.817 473.013 180.437 473.778 180.437Z" fill="white" fill-opacity="0.13"/>
<path d="M503.389 180.437C504.154 180.437 504.774 179.817 504.774 179.052C504.774 178.287 504.154 177.667 503.389 177.667C502.624 177.667 502.004 178.287 502.004 179.052C502.004 179.817 502.624 180.437 503.389 180.437Z" fill="white" fill-opacity="0.13"/>
<path d="M533 180.437C533.765 180.437 534.385 179.817 534.385 179.052C534.385 178.287 533.765 177.667 533 177.667C532.235 177.667 531.615 178.287 531.615 179.052C531.615 179.817 532.235 180.437 533 180.437Z" fill="white" fill-opacity="0.13"/>
<path d="M2.7895e-05 210.048C0.764997 210.048 1.38513 209.428 1.38513 208.663C1.38513 207.898 0.764997 207.278 2.7895e-05 207.278C-0.764941 207.278 -1.38507 207.898 -1.38507 208.663C-1.38507 209.428 -0.764941 210.048 2.7895e-05 210.048Z" fill="white" fill-opacity="0.13"/>
<path d="M29.6111 210.048C30.3761 210.048 30.9962 209.428 30.9962 208.663C30.9962 207.898 30.3761 207.278 29.6111 207.278C28.8461 207.278 28.226 207.898 28.226 208.663C28.226 209.428 28.8461 210.048 29.6111 210.048Z" fill="white" fill-opacity="0.13"/>
<path d="M59.2223 210.048C59.9872 210.048 60.6074 209.428 60.6074 208.663C60.6074 207.898 59.9872 207.278 59.2223 207.278C58.4573 207.278 57.8372 207.898 57.8372 208.663C57.8372 209.428 58.4573 210.048 59.2223 210.048Z" fill="white" fill-opacity="0.13"/>
<path d="M88.8333 210.048C89.5983 210.048 90.2184 209.428 90.2184 208.663C90.2184 207.898 89.5983 207.278 88.8333 207.278C88.0684 207.278 87.4482 207.898 87.4482 208.663C87.4482 209.428 88.0684 210.048 88.8333 210.048Z" fill="white" fill-opacity="0.13"/>
<path d="M118.444 210.048C119.209 210.048 119.83 209.428 119.83 208.663C119.83 207.898 119.209 207.278 118.444 207.278C117.68 207.278 117.059 207.898 117.059 208.663C117.059 209.428 117.68 210.048 118.444 210.048Z" fill="white" fill-opacity="0.13"/>
<path d="M148.056 210.048C148.821 210.048 149.441 209.428 149.441 208.663C149.441 207.898 148.821 207.278 148.056 207.278C147.291 207.278 146.67 207.898 146.67 208.663C146.67 209.428 147.291 210.048 148.056 210.048Z" fill="white" fill-opacity="0.13"/>
<path d="M177.667 210.048C178.432 210.048 179.052 209.428 179.052 208.663C179.052 207.898 178.432 207.278 177.667 207.278C176.902 207.278 176.282 207.898 176.282 208.663C176.282 209.428 176.902 210.048 177.667 210.048Z" fill="white" fill-opacity="0.13"/>
<path d="M207.278 210.048C208.043 210.048 208.663 209.428 208.663 208.663C208.663 207.898 208.043 207.278 207.278 207.278C206.513 207.278 205.893 207.898 205.893 208.663C205.893 209.428 206.513 210.048 207.278 210.048Z" fill="white" fill-opacity="0.13"/>
<path d="M236.889 210.048C237.654 210.048 238.274 209.428 238.274 208.663C238.274 207.898 237.654 207.278 236.889 207.278C236.124 207.278 235.504 207.898 235.504 208.663C235.504 209.428 236.124 210.048 236.889 210.048Z" fill="white" fill-opacity="0.13"/>
<path d="M266.5 210.048C267.265 210.048 267.885 209.428 267.885 208.663C267.885 207.898 267.265 207.278 266.5 207.278C265.735 207.278 265.115 207.898 265.115 208.663C265.115 209.428 265.735 210.048 266.5 210.048Z" fill="white" fill-opacity="0.13"/>
<path d="M296.111 210.048C296.876 210.048 297.496 209.428 297.496 208.663C297.496 207.898 296.876 207.278 296.111 207.278C295.346 207.278 294.726 207.898 294.726 208.663C294.726 209.428 295.346 210.048 296.111 210.048Z" fill="white" fill-opacity="0.13"/>
<path d="M325.722 210.048C326.487 210.048 327.107 209.428 327.107 208.663C327.107 207.898 326.487 207.278 325.722 207.278C324.957 207.278 324.337 207.898 324.337 208.663C324.337 209.428 324.957 210.048 325.722 210.048Z" fill="white" fill-opacity="0.13"/>
<path d="M355.333 210.048C356.098 210.048 356.718 209.428 356.718 208.663C356.718 207.898 356.098 207.278 355.333 207.278C354.568 207.278 353.948 207.898 353.948 208.663C353.948 209.428 354.568 210.048 355.333 210.048Z" fill="white" fill-opacity="0.13"/>
<path d="M384.944 210.048C385.709 210.048 386.33 209.428 386.33 208.663C386.33 207.898 385.709 207.278 384.944 207.278C384.179 207.278 383.559 207.898 383.559 208.663C383.559 209.428 384.179 210.048 384.944 210.048Z" fill="white" fill-opacity="0.13"/>
<path d="M414.556 210.048C415.321 210.048 415.941 209.428 415.941 208.663C415.941 207.898 415.321 207.278 414.556 207.278C413.791 207.278 413.17 207.898 413.17 208.663C413.17 209.428 413.791 210.048 414.556 210.048Z" fill="white" fill-opacity="0.13"/>
<path d="M444.167 210.048C444.932 210.048 445.552 209.428 445.552 208.663C445.552 207.898 444.932 207.278 444.167 207.278C443.402 207.278 442.782 207.898 442.782 208.663C442.782 209.428 443.402 210.048 444.167 210.048Z" fill="white" fill-opacity="0.13"/>
<path d="M473.778 210.048C474.543 210.048 475.163 209.428 475.163 208.663C475.163 207.898 474.543 207.278 473.778 207.278C473.013 207.278 472.393 207.898 472.393 208.663C472.393 209.428 473.013 210.048 473.778 210.048Z" fill="white" fill-opacity="0.13"/>
<path d="M503.389 210.048C504.154 210.048 504.774 209.428 504.774 208.663C504.774 207.898 504.154 207.278 503.389 207.278C502.624 207.278 502.004 207.898 502.004 208.663C502.004 209.428 502.624 210.048 503.389 210.048Z" fill="white" fill-opacity="0.13"/>
<path d="M533 210.048C533.765 210.048 534.385 209.428 534.385 208.663C534.385 207.898 533.765 207.278 533 207.278C532.235 207.278 531.615 207.898 531.615 208.663C531.615 209.428 532.235 210.048 533 210.048Z" fill="white" fill-opacity="0.13"/>
<path d="M2.7895e-05 239.659C0.764997 239.659 1.38513 239.039 1.38513 238.274C1.38513 237.509 0.764997 236.889 2.7895e-05 236.889C-0.764941 236.889 -1.38507 237.509 -1.38507 238.274C-1.38507 239.039 -0.764941 239.659 2.7895e-05 239.659Z" fill="white" fill-opacity="0.13"/>
<path d="M29.6111 239.659C30.3761 239.659 30.9962 239.039 30.9962 238.274C30.9962 237.509 30.3761 236.889 29.6111 236.889C28.8461 236.889 28.226 237.509 28.226 238.274C28.226 239.039 28.8461 239.659 29.6111 239.659Z" fill="white" fill-opacity="0.13"/>
<path d="M59.2223 239.659C59.9872 239.659 60.6074 239.039 60.6074 238.274C60.6074 237.509 59.9872 236.889 59.2223 236.889C58.4573 236.889 57.8372 237.509 57.8372 238.274C57.8372 239.039 58.4573 239.659 59.2223 239.659Z" fill="white" fill-opacity="0.13"/>
<path d="M88.8333 239.659C89.5983 239.659 90.2184 239.039 90.2184 238.274C90.2184 237.509 89.5983 236.889 88.8333 236.889C88.0684 236.889 87.4482 237.509 87.4482 238.274C87.4482 239.039 88.0684 239.659 88.8333 239.659Z" fill="white" fill-opacity="0.13"/>
<path d="M118.444 239.659C119.209 239.659 119.83 239.039 119.83 238.274C119.83 237.509 119.209 236.889 118.444 236.889C117.68 236.889 117.059 237.509 117.059 238.274C117.059 239.039 117.68 239.659 118.444 239.659Z" fill="white" fill-opacity="0.13"/>
<path d="M148.056 239.659C148.821 239.659 149.441 239.039 149.441 238.274C149.441 237.509 148.821 236.889 148.056 236.889C147.291 236.889 146.67 237.509 146.67 238.274C146.67 239.039 147.291 239.659 148.056 239.659Z" fill="white" fill-opacity="0.13"/>
<path d="M177.667 239.659C178.432 239.659 179.052 239.039 179.052 238.274C179.052 237.509 178.432 236.889 177.667 236.889C176.902 236.889 176.282 237.509 176.282 238.274C176.282 239.039 176.902 239.659 177.667 239.659Z" fill="white" fill-opacity="0.13"/>
<path d="M207.278 239.659C208.043 239.659 208.663 239.039 208.663 238.274C208.663 237.509 208.043 236.889 207.278 236.889C206.513 236.889 205.893 237.509 205.893 238.274C205.893 239.039 206.513 239.659 207.278 239.659Z" fill="white" fill-opacity="0.13"/>
<path d="M236.889 239.659C237.654 239.659 238.274 239.039 238.274 238.274C238.274 237.509 237.654 236.889 236.889 236.889C236.124 236.889 235.504 237.509 235.504 238.274C235.504 239.039 236.124 239.659 236.889 239.659Z" fill="white" fill-opacity="0.13"/>
<path d="M266.5 239.659C267.265 239.659 267.885 239.039 267.885 238.274C267.885 237.509 267.265 236.889 266.5 236.889C265.735 236.889 265.115 237.509 265.115 238.274C265.115 239.039 265.735 239.659 266.5 239.659Z" fill="white" fill-opacity="0.13"/>
<path d="M296.111 239.659C296.876 239.659 297.496 239.039 297.496 238.274C297.496 237.509 296.876 236.889 296.111 236.889C295.346 236.889 294.726 237.509 294.726 238.274C294.726 239.039 295.346 239.659 296.111 239.659Z" fill="white" fill-opacity="0.13"/>
<path d="M325.722 239.659C326.487 239.659 327.107 239.039 327.107 238.274C327.107 237.509 326.487 236.889 325.722 236.889C324.957 236.889 324.337 237.509 324.337 238.274C324.337 239.039 324.957 239.659 325.722 239.659Z" fill="white" fill-opacity="0.13"/>
<path d="M355.333 239.659C356.098 239.659 356.718 239.039 356.718 238.274C356.718 237.509 356.098 236.889 355.333 236.889C354.568 236.889 353.948 237.509 353.948 238.274C353.948 239.039 354.568 239.659 355.333 239.659Z" fill="white" fill-opacity="0.13"/>
<path d="M384.944 239.659C385.709 239.659 386.33 239.039 386.33 238.274C386.33 237.509 385.709 236.889 384.944 236.889C384.179 236.889 383.559 237.509 383.559 238.274C383.559 239.039 384.179 239.659 384.944 239.659Z" fill="white" fill-opacity="0.13"/>
<path d="M414.556 239.659C415.321 239.659 415.941 239.039 415.941 238.274C415.941 237.509 415.321 236.889 414.556 236.889C413.791 236.889 413.17 237.509 413.17 238.274C413.17 239.039 413.791 239.659 414.556 239.659Z" fill="white" fill-opacity="0.13"/>
<path d="M444.167 239.659C444.932 239.659 445.552 239.039 445.552 238.274C445.552 237.509 444.932 236.889 444.167 236.889C443.402 236.889 442.782 237.509 442.782 238.274C442.782 239.039 443.402 239.659 444.167 239.659Z" fill="white" fill-opacity="0.13"/>
<path d="M473.778 239.659C474.543 239.659 475.163 239.039 475.163 238.274C475.163 237.509 474.543 236.889 473.778 236.889C473.013 236.889 472.393 237.509 472.393 238.274C472.393 239.039 473.013 239.659 473.778 239.659Z" fill="white" fill-opacity="0.13"/>
<path d="M503.389 239.659C504.154 239.659 504.774 239.039 504.774 238.274C504.774 237.509 504.154 236.889 503.389 236.889C502.624 236.889 502.004 237.509 502.004 238.274C502.004 239.039 502.624 239.659 503.389 239.659Z" fill="white" fill-opacity="0.13"/>
<path d="M533 239.659C533.765 239.659 534.385 239.039 534.385 238.274C534.385 237.509 533.765 236.889 533 236.889C532.235 236.889 531.615 237.509 531.615 238.274C531.615 239.039 532.235 239.659 533 239.659Z" fill="white" fill-opacity="0.13"/>
<path d="M2.7895e-05 269.27C0.764997 269.27 1.38513 268.65 1.38513 267.885C1.38513 267.12 0.764997 266.5 2.7895e-05 266.5C-0.764941 266.5 -1.38507 267.12 -1.38507 267.885C-1.38507 268.65 -0.764941 269.27 2.7895e-05 269.27Z" fill="white" fill-opacity="0.13"/>
<path d="M29.6111 269.27C30.3761 269.27 30.9962 268.65 30.9962 267.885C30.9962 267.12 30.3761 266.5 29.6111 266.5C28.8461 266.5 28.226 267.12 28.226 267.885C28.226 268.65 28.8461 269.27 29.6111 269.27Z" fill="white" fill-opacity="0.13"/>
<path d="M59.2223 269.27C59.9872 269.27 60.6074 268.65 60.6074 267.885C60.6074 267.12 59.9872 266.5 59.2223 266.5C58.4573 266.5 57.8372 267.12 57.8372 267.885C57.8372 268.65 58.4573 269.27 59.2223 269.27Z" fill="white" fill-opacity="0.13"/>
<path d="M88.8333 269.27C89.5983 269.27 90.2184 268.65 90.2184 267.885C90.2184 267.12 89.5983 266.5 88.8333 266.5C88.0684 266.5 87.4482 267.12 87.4482 267.885C87.4482 268.65 88.0684 269.27 88.8333 269.27Z" fill="white" fill-opacity="0.13"/>
<path d="M118.444 269.27C119.209 269.27 119.83 268.65 119.83 267.885C119.83 267.12 119.209 266.5 118.444 266.5C117.68 266.5 117.059 267.12 117.059 267.885C117.059 268.65 117.68 269.27 118.444 269.27Z" fill="white" fill-opacity="0.13"/>
<path d="M148.056 269.27C148.821 269.27 149.441 268.65 149.441 267.885C149.441 267.12 148.821 266.5 148.056 266.5C147.291 266.5 146.67 267.12 146.67 267.885C146.67 268.65 147.291 269.27 148.056 269.27Z" fill="white" fill-opacity="0.13"/>
<path d="M177.667 269.27C178.432 269.27 179.052 268.65 179.052 267.885C179.052 267.12 178.432 266.5 177.667 266.5C176.902 266.5 176.282 267.12 176.282 267.885C176.282 268.65 176.902 269.27 177.667 269.27Z" fill="white" fill-opacity="0.13"/>
<path d="M207.278 269.27C208.043 269.27 208.663 268.65 208.663 267.885C208.663 267.12 208.043 266.5 207.278 266.5C206.513 266.5 205.893 267.12 205.893 267.885C205.893 268.65 206.513 269.27 207.278 269.27Z" fill="white" fill-opacity="0.13"/>
<path d="M236.889 269.27C237.654 269.27 238.274 268.65 238.274 267.885C238.274 267.12 237.654 266.5 236.889 266.5C236.124 266.5 235.504 267.12 235.504 267.885C235.504 268.65 236.124 269.27 236.889 269.27Z" fill="white" fill-opacity="0.13"/>
<path d="M266.5 269.27C267.265 269.27 267.885 268.65 267.885 267.885C267.885 267.12 267.265 266.5 266.5 266.5C265.735 266.5 265.115 267.12 265.115 267.885C265.115 268.65 265.735 269.27 266.5 269.27Z" fill="white" fill-opacity="0.13"/>
<path d="M296.111 269.27C296.876 269.27 297.496 268.65 297.496 267.885C297.496 267.12 296.876 266.5 296.111 266.5C295.346 266.5 294.726 267.12 294.726 267.885C294.726 268.65 295.346 269.27 296.111 269.27Z" fill="white" fill-opacity="0.13"/>
<path d="M325.722 269.27C326.487 269.27 327.107 268.65 327.107 267.885C327.107 267.12 326.487 266.5 325.722 266.5C324.957 266.5 324.337 267.12 324.337 267.885C324.337 268.65 324.957 269.27 325.722 269.27Z" fill="white" fill-opacity="0.13"/>
<path d="M355.333 269.27C356.098 269.27 356.718 268.65 356.718 267.885C356.718 267.12 356.098 266.5 355.333 266.5C354.568 266.5 353.948 267.12 353.948 267.885C353.948 268.65 354.568 269.27 355.333 269.27Z" fill="white" fill-opacity="0.13"/>
<path d="M384.944 269.27C385.709 269.27 386.33 268.65 386.33 267.885C386.33 267.12 385.709 266.5 384.944 266.5C384.179 266.5 383.559 267.12 383.559 267.885C383.559 268.65 384.179 269.27 384.944 269.27Z" fill="white" fill-opacity="0.13"/>
<path d="M414.556 269.27C415.321 269.27 415.941 268.65 415.941 267.885C415.941 267.12 415.321 266.5 414.556 266.5C413.791 266.5 413.17 267.12 413.17 267.885C413.17 268.65 413.791 269.27 414.556 269.27Z" fill="white" fill-opacity="0.13"/>
<path d="M444.167 269.27C444.932 269.27 445.552 268.65 445.552 267.885C445.552 267.12 444.932 266.5 444.167 266.5C443.402 266.5 442.782 267.12 442.782 267.885C442.782 268.65 443.402 269.27 444.167 269.27Z" fill="white" fill-opacity="0.13"/>
<path d="M473.778 269.27C474.543 269.27 475.163 268.65 475.163 267.885C475.163 267.12 474.543 266.5 473.778 266.5C473.013 266.5 472.393 267.12 472.393 267.885C472.393 268.65 473.013 269.27 473.778 269.27Z" fill="white" fill-opacity="0.13"/>
<path d="M503.389 269.27C504.154 269.27 504.774 268.65 504.774 267.885C504.774 267.12 504.154 266.5 503.389 266.5C502.624 266.5 502.004 267.12 502.004 267.885C502.004 268.65 502.624 269.27 503.389 269.27Z" fill="white" fill-opacity="0.13"/>
<path d="M533 269.27C533.765 269.27 534.385 268.65 534.385 267.885C534.385 267.12 533.765 266.5 533 266.5C532.235 266.5 531.615 267.12 531.615 267.885C531.615 268.65 532.235 269.27 533 269.27Z" fill="white" fill-opacity="0.13"/>
<path d="M2.7895e-05 298.881C0.764997 298.881 1.38513 298.261 1.38513 297.496C1.38513 296.731 0.764997 296.111 2.7895e-05 296.111C-0.764941 296.111 -1.38507 296.731 -1.38507 297.496C-1.38507 298.261 -0.764941 298.881 2.7895e-05 298.881Z" fill="white" fill-opacity="0.13"/>
<path d="M29.6111 298.881C30.3761 298.881 30.9962 298.261 30.9962 297.496C30.9962 296.731 30.3761 296.111 29.6111 296.111C28.8461 296.111 28.226 296.731 28.226 297.496C28.226 298.261 28.8461 298.881 29.6111 298.881Z" fill="white" fill-opacity="0.13"/>
<path d="M59.2223 298.881C59.9872 298.881 60.6074 298.261 60.6074 297.496C60.6074 296.731 59.9872 296.111 59.2223 296.111C58.4573 296.111 57.8372 296.731 57.8372 297.496C57.8372 298.261 58.4573 298.881 59.2223 298.881Z" fill="white" fill-opacity="0.13"/>
<path d="M88.8333 298.881C89.5983 298.881 90.2184 298.261 90.2184 297.496C90.2184 296.731 89.5983 296.111 88.8333 296.111C88.0684 296.111 87.4482 296.731 87.4482 297.496C87.4482 298.261 88.0684 298.881 88.8333 298.881Z" fill="white" fill-opacity="0.13"/>
<path d="M118.444 298.881C119.209 298.881 119.83 298.261 119.83 297.496C119.83 296.731 119.209 296.111 118.444 296.111C117.68 296.111 117.059 296.731 117.059 297.496C117.059 298.261 117.68 298.881 118.444 298.881Z" fill="white" fill-opacity="0.13"/>
<path d="M148.056 298.881C148.821 298.881 149.441 298.261 149.441 297.496C149.441 296.731 148.821 296.111 148.056 296.111C147.291 296.111 146.67 296.731 146.67 297.496C146.67 298.261 147.291 298.881 148.056 298.881Z" fill="white" fill-opacity="0.13"/>
<path d="M177.667 298.881C178.432 298.881 179.052 298.261 179.052 297.496C179.052 296.731 178.432 296.111 177.667 296.111C176.902 296.111 176.282 296.731 176.282 297.496C176.282 298.261 176.902 298.881 177.667 298.881Z" fill="white" fill-opacity="0.13"/>
<path d="M207.278 298.881C208.043 298.881 208.663 298.261 208.663 297.496C208.663 296.731 208.043 296.111 207.278 296.111C206.513 296.111 205.893 296.731 205.893 297.496C205.893 298.261 206.513 298.881 207.278 298.881Z" fill="white" fill-opacity="0.13"/>
<path d="M236.889 298.881C237.654 298.881 238.274 298.261 238.274 297.496C238.274 296.731 237.654 296.111 236.889 296.111C236.124 296.111 235.504 296.731 235.504 297.496C235.504 298.261 236.124 298.881 236.889 298.881Z" fill="white" fill-opacity="0.13"/>
<path d="M266.5 298.881C267.265 298.881 267.885 298.261 267.885 297.496C267.885 296.731 267.265 296.111 266.5 296.111C265.735 296.111 265.115 296.731 265.115 297.496C265.115 298.261 265.735 298.881 266.5 298.881Z" fill="white" fill-opacity="0.13"/>
<path d="M296.111 298.881C296.876 298.881 297.496 298.261 297.496 297.496C297.496 296.731 296.876 296.111 296.111 296.111C295.346 296.111 294.726 296.731 294.726 297.496C294.726 298.261 295.346 298.881 296.111 298.881Z" fill="white" fill-opacity="0.13"/>
<path d="M325.722 298.881C326.487 298.881 327.107 298.261 327.107 297.496C327.107 296.731 326.487 296.111 325.722 296.111C324.957 296.111 324.337 296.731 324.337 297.496C324.337 298.261 324.957 298.881 325.722 298.881Z" fill="white" fill-opacity="0.13"/>
<path d="M355.333 298.881C356.098 298.881 356.718 298.261 356.718 297.496C356.718 296.731 356.098 296.111 355.333 296.111C354.568 296.111 353.948 296.731 353.948 297.496C353.948 298.261 354.568 298.881 355.333 298.881Z" fill="white" fill-opacity="0.13"/>
<path d="M384.944 298.881C385.709 298.881 386.33 298.261 386.33 297.496C386.33 296.731 385.709 296.111 384.944 296.111C384.179 296.111 383.559 296.731 383.559 297.496C383.559 298.261 384.179 298.881 384.944 298.881Z" fill="white" fill-opacity="0.13"/>
<path d="M414.556 298.881C415.321 298.881 415.941 298.261 415.941 297.496C415.941 296.731 415.321 296.111 414.556 296.111C413.791 296.111 413.17 296.731 413.17 297.496C413.17 298.261 413.791 298.881 414.556 298.881Z" fill="white" fill-opacity="0.13"/>
<path d="M444.167 298.881C444.932 298.881 445.552 298.261 445.552 297.496C445.552 296.731 444.932 296.111 444.167 296.111C443.402 296.111 442.782 296.731 442.782 297.496C442.782 298.261 443.402 298.881 444.167 298.881Z" fill="white" fill-opacity="0.13"/>
<path d="M473.778 298.881C474.543 298.881 475.163 298.261 475.163 297.496C475.163 296.731 474.543 296.111 473.778 296.111C473.013 296.111 472.393 296.731 472.393 297.496C472.393 298.261 473.013 298.881 473.778 298.881Z" fill="white" fill-opacity="0.13"/>
<path d="M503.389 298.881C504.154 298.881 504.774 298.261 504.774 297.496C504.774 296.731 504.154 296.111 503.389 296.111C502.624 296.111 502.004 296.731 502.004 297.496C502.004 298.261 502.624 298.881 503.389 298.881Z" fill="white" fill-opacity="0.13"/>
<path d="M533 298.881C533.765 298.881 534.385 298.261 534.385 297.496C534.385 296.731 533.765 296.111 533 296.111C532.235 296.111 531.615 296.731 531.615 297.496C531.615 298.261 532.235 298.881 533 298.881Z" fill="white" fill-opacity="0.13"/>
<path d="M2.7895e-05 328.492C0.764997 328.492 1.38513 327.872 1.38513 327.107C1.38513 326.342 0.764997 325.722 2.7895e-05 325.722C-0.764941 325.722 -1.38507 326.342 -1.38507 327.107C-1.38507 327.872 -0.764941 328.492 2.7895e-05 328.492Z" fill="white" fill-opacity="0.13"/>
<path d="M29.6111 328.492C30.3761 328.492 30.9962 327.872 30.9962 327.107C30.9962 326.342 30.3761 325.722 29.6111 325.722C28.8461 325.722 28.226 326.342 28.226 327.107C28.226 327.872 28.8461 328.492 29.6111 328.492Z" fill="white" fill-opacity="0.13"/>
<path d="M59.2223 328.492C59.9872 328.492 60.6074 327.872 60.6074 327.107C60.6074 326.342 59.9872 325.722 59.2223 325.722C58.4573 325.722 57.8372 326.342 57.8372 327.107C57.8372 327.872 58.4573 328.492 59.2223 328.492Z" fill="white" fill-opacity="0.13"/>
<path d="M88.8333 328.492C89.5983 328.492 90.2184 327.872 90.2184 327.107C90.2184 326.342 89.5983 325.722 88.8333 325.722C88.0684 325.722 87.4482 326.342 87.4482 327.107C87.4482 327.872 88.0684 328.492 88.8333 328.492Z" fill="white" fill-opacity="0.13"/>
<path d="M118.444 328.492C119.209 328.492 119.83 327.872 119.83 327.107C119.83 326.342 119.209 325.722 118.444 325.722C117.68 325.722 117.059 326.342 117.059 327.107C117.059 327.872 117.68 328.492 118.444 328.492Z" fill="white" fill-opacity="0.13"/>
<path d="M148.056 328.492C148.821 328.492 149.441 327.872 149.441 327.107C149.441 326.342 148.821 325.722 148.056 325.722C147.291 325.722 146.67 326.342 146.67 327.107C146.67 327.872 147.291 328.492 148.056 328.492Z" fill="white" fill-opacity="0.13"/>
<path d="M177.667 328.492C178.432 328.492 179.052 327.872 179.052 327.107C179.052 326.342 178.432 325.722 177.667 325.722C176.902 325.722 176.282 326.342 176.282 327.107C176.282 327.872 176.902 328.492 177.667 328.492Z" fill="white" fill-opacity="0.13"/>
<path d="M207.278 328.492C208.043 328.492 208.663 327.872 208.663 327.107C208.663 326.342 208.043 325.722 207.278 325.722C206.513 325.722 205.893 326.342 205.893 327.107C205.893 327.872 206.513 328.492 207.278 328.492Z" fill="white" fill-opacity="0.13"/>
<path d="M236.889 328.492C237.654 328.492 238.274 327.872 238.274 327.107C238.274 326.342 237.654 325.722 236.889 325.722C236.124 325.722 235.504 326.342 235.504 327.107C235.504 327.872 236.124 328.492 236.889 328.492Z" fill="white" fill-opacity="0.13"/>
<path d="M266.5 328.492C267.265 328.492 267.885 327.872 267.885 327.107C267.885 326.342 267.265 325.722 266.5 325.722C265.735 325.722 265.115 326.342 265.115 327.107C265.115 327.872 265.735 328.492 266.5 328.492Z" fill="white" fill-opacity="0.13"/>
<path d="M296.111 328.492C296.876 328.492 297.496 327.872 297.496 327.107C297.496 326.342 296.876 325.722 296.111 325.722C295.346 325.722 294.726 326.342 294.726 327.107C294.726 327.872 295.346 328.492 296.111 328.492Z" fill="white" fill-opacity="0.13"/>
<path d="M325.722 328.492C326.487 328.492 327.107 327.872 327.107 327.107C327.107 326.342 326.487 325.722 325.722 325.722C324.957 325.722 324.337 326.342 324.337 327.107C324.337 327.872 324.957 328.492 325.722 328.492Z" fill="white" fill-opacity="0.13"/>
<path d="M355.333 328.492C356.098 328.492 356.718 327.872 356.718 327.107C356.718 326.342 356.098 325.722 355.333 325.722C354.568 325.722 353.948 326.342 353.948 327.107C353.948 327.872 354.568 328.492 355.333 328.492Z" fill="white" fill-opacity="0.13"/>
<path d="M384.944 328.492C385.709 328.492 386.33 327.872 386.33 327.107C386.33 326.342 385.709 325.722 384.944 325.722C384.179 325.722 383.559 326.342 383.559 327.107C383.559 327.872 384.179 328.492 384.944 328.492Z" fill="white" fill-opacity="0.13"/>
<path d="M414.556 328.492C415.321 328.492 415.941 327.872 415.941 327.107C415.941 326.342 415.321 325.722 414.556 325.722C413.791 325.722 413.17 326.342 413.17 327.107C413.17 327.872 413.791 328.492 414.556 328.492Z" fill="white" fill-opacity="0.13"/>
<path d="M444.167 328.492C444.932 328.492 445.552 327.872 445.552 327.107C445.552 326.342 444.932 325.722 444.167 325.722C443.402 325.722 442.782 326.342 442.782 327.107C442.782 327.872 443.402 328.492 444.167 328.492Z" fill="white" fill-opacity="0.13"/>
<path d="M473.778 328.492C474.543 328.492 475.163 327.872 475.163 327.107C475.163 326.342 474.543 325.722 473.778 325.722C473.013 325.722 472.393 326.342 472.393 327.107C472.393 327.872 473.013 328.492 473.778 328.492Z" fill="white" fill-opacity="0.13"/>
<path d="M503.389 328.492C504.154 328.492 504.774 327.872 504.774 327.107C504.774 326.342 504.154 325.722 503.389 325.722C502.624 325.722 502.004 326.342 502.004 327.107C502.004 327.872 502.624 328.492 503.389 328.492Z" fill="white" fill-opacity="0.13"/>
<path d="M533 328.492C533.765 328.492 534.385 327.872 534.385 327.107C534.385 326.342 533.765 325.722 533 325.722C532.235 325.722 531.615 326.342 531.615 327.107C531.615 327.872 532.235 328.492 533 328.492Z" fill="white" fill-opacity="0.13"/>
<path d="M2.7895e-05 358.104C0.764997 358.104 1.38513 357.483 1.38513 356.718C1.38513 355.953 0.764997 355.333 2.7895e-05 355.333C-0.764941 355.333 -1.38507 355.953 -1.38507 356.718C-1.38507 357.483 -0.764941 358.104 2.7895e-05 358.104Z" fill="white" fill-opacity="0.13"/>
<path d="M29.6111 358.104C30.3761 358.104 30.9962 357.483 30.9962 356.718C30.9962 355.953 30.3761 355.333 29.6111 355.333C28.8461 355.333 28.226 355.953 28.226 356.718C28.226 357.483 28.8461 358.104 29.6111 358.104Z" fill="white" fill-opacity="0.13"/>
<path d="M59.2223 358.104C59.9872 358.104 60.6074 357.483 60.6074 356.718C60.6074 355.953 59.9872 355.333 59.2223 355.333C58.4573 355.333 57.8372 355.953 57.8372 356.718C57.8372 357.483 58.4573 358.104 59.2223 358.104Z" fill="white" fill-opacity="0.13"/>
<path d="M88.8333 358.104C89.5983 358.104 90.2184 357.483 90.2184 356.718C90.2184 355.953 89.5983 355.333 88.8333 355.333C88.0684 355.333 87.4482 355.953 87.4482 356.718C87.4482 357.483 88.0684 358.104 88.8333 358.104Z" fill="white" fill-opacity="0.13"/>
<path d="M118.444 358.104C119.209 358.104 119.83 357.483 119.83 356.718C119.83 355.953 119.209 355.333 118.444 355.333C117.68 355.333 117.059 355.953 117.059 356.718C117.059 357.483 117.68 358.104 118.444 358.104Z" fill="white" fill-opacity="0.13"/>
<path d="M148.056 358.104C148.821 358.104 149.441 357.483 149.441 356.718C149.441 355.953 148.821 355.333 148.056 355.333C147.291 355.333 146.67 355.953 146.67 356.718C146.67 357.483 147.291 358.104 148.056 358.104Z" fill="white" fill-opacity="0.13"/>
<path d="M177.667 358.104C178.432 358.104 179.052 357.483 179.052 356.718C179.052 355.953 178.432 355.333 177.667 355.333C176.902 355.333 176.282 355.953 176.282 356.718C176.282 357.483 176.902 358.104 177.667 358.104Z" fill="white" fill-opacity="0.13"/>
<path d="M207.278 358.104C208.043 358.104 208.663 357.483 208.663 356.718C208.663 355.953 208.043 355.333 207.278 355.333C206.513 355.333 205.893 355.953 205.893 356.718C205.893 357.483 206.513 358.104 207.278 358.104Z" fill="white" fill-opacity="0.13"/>
<path d="M236.889 358.104C237.654 358.104 238.274 357.483 238.274 356.718C238.274 355.953 237.654 355.333 236.889 355.333C236.124 355.333 235.504 355.953 235.504 356.718C235.504 357.483 236.124 358.104 236.889 358.104Z" fill="white" fill-opacity="0.13"/>
<path d="M266.5 358.104C267.265 358.104 267.885 357.483 267.885 356.718C267.885 355.953 267.265 355.333 266.5 355.333C265.735 355.333 265.115 355.953 265.115 356.718C265.115 357.483 265.735 358.104 266.5 358.104Z" fill="white" fill-opacity="0.13"/>
<path d="M296.111 358.104C296.876 358.104 297.496 357.483 297.496 356.718C297.496 355.953 296.876 355.333 296.111 355.333C295.346 355.333 294.726 355.953 294.726 356.718C294.726 357.483 295.346 358.104 296.111 358.104Z" fill="white" fill-opacity="0.13"/>
<path d="M325.722 358.104C326.487 358.104 327.107 357.483 327.107 356.718C327.107 355.953 326.487 355.333 325.722 355.333C324.957 355.333 324.337 355.953 324.337 356.718C324.337 357.483 324.957 358.104 325.722 358.104Z" fill="white" fill-opacity="0.13"/>
<path d="M355.333 358.104C356.098 358.104 356.718 357.483 356.718 356.718C356.718 355.953 356.098 355.333 355.333 355.333C354.568 355.333 353.948 355.953 353.948 356.718C353.948 357.483 354.568 358.104 355.333 358.104Z" fill="white" fill-opacity="0.13"/>
<path d="M384.944 358.104C385.709 358.104 386.33 357.483 386.33 356.718C386.33 355.953 385.709 355.333 384.944 355.333C384.179 355.333 383.559 355.953 383.559 356.718C383.559 357.483 384.179 358.104 384.944 358.104Z" fill="white" fill-opacity="0.13"/>
<path d="M414.556 358.104C415.321 358.104 415.941 357.483 415.941 356.718C415.941 355.953 415.321 355.333 414.556 355.333C413.791 355.333 413.17 355.953 413.17 356.718C413.17 357.483 413.791 358.104 414.556 358.104Z" fill="white" fill-opacity="0.13"/>
<path d="M444.167 358.104C444.932 358.104 445.552 357.483 445.552 356.718C445.552 355.953 444.932 355.333 444.167 355.333C443.402 355.333 442.782 355.953 442.782 356.718C442.782 357.483 443.402 358.104 444.167 358.104Z" fill="white" fill-opacity="0.13"/>
<path d="M473.778 358.104C474.543 358.104 475.163 357.483 475.163 356.718C475.163 355.953 474.543 355.333 473.778 355.333C473.013 355.333 472.393 355.953 472.393 356.718C472.393 357.483 473.013 358.104 473.778 358.104Z" fill="white" fill-opacity="0.13"/>
<path d="M503.389 358.104C504.154 358.104 504.774 357.483 504.774 356.718C504.774 355.953 504.154 355.333 503.389 355.333C502.624 355.333 502.004 355.953 502.004 356.718C502.004 357.483 502.624 358.104 503.389 358.104Z" fill="white" fill-opacity="0.13"/>
<path d="M533 358.104C533.765 358.104 534.385 357.483 534.385 356.718C534.385 355.953 533.765 355.333 533 355.333C532.235 355.333 531.615 355.953 531.615 356.718C531.615 357.483 532.235 358.104 533 358.104Z" fill="white" fill-opacity="0.13"/>
<path d="M2.7895e-05 387.715C0.764997 387.715 1.38513 387.095 1.38513 386.33C1.38513 385.565 0.764997 384.944 2.7895e-05 384.944C-0.764941 384.944 -1.38507 385.565 -1.38507 386.33C-1.38507 387.095 -0.764941 387.715 2.7895e-05 387.715Z" fill="white" fill-opacity="0.13"/>
<path d="M29.6111 387.715C30.3761 387.715 30.9962 387.095 30.9962 386.33C30.9962 385.565 30.3761 384.944 29.6111 384.944C28.8461 384.944 28.226 385.565 28.226 386.33C28.226 387.095 28.8461 387.715 29.6111 387.715Z" fill="white" fill-opacity="0.13"/>
<path d="M59.2223 387.715C59.9872 387.715 60.6074 387.095 60.6074 386.33C60.6074 385.565 59.9872 384.944 59.2223 384.944C58.4573 384.944 57.8372 385.565 57.8372 386.33C57.8372 387.095 58.4573 387.715 59.2223 387.715Z" fill="white" fill-opacity="0.13"/>
<path d="M88.8333 387.715C89.5983 387.715 90.2184 387.095 90.2184 386.33C90.2184 385.565 89.5983 384.944 88.8333 384.944C88.0684 384.944 87.4482 385.565 87.4482 386.33C87.4482 387.095 88.0684 387.715 88.8333 387.715Z" fill="white" fill-opacity="0.13"/>
<path d="M118.444 387.715C119.209 387.715 119.83 387.095 119.83 386.33C119.83 385.565 119.209 384.944 118.444 384.944C117.68 384.944 117.059 385.565 117.059 386.33C117.059 387.095 117.68 387.715 118.444 387.715Z" fill="white" fill-opacity="0.13"/>
<path d="M148.056 387.715C148.821 387.715 149.441 387.095 149.441 386.33C149.441 385.565 148.821 384.944 148.056 384.944C147.291 384.944 146.67 385.565 146.67 386.33C146.67 387.095 147.291 387.715 148.056 387.715Z" fill="white" fill-opacity="0.13"/>
<path d="M177.667 387.715C178.432 387.715 179.052 387.095 179.052 386.33C179.052 385.565 178.432 384.944 177.667 384.944C176.902 384.944 176.282 385.565 176.282 386.33C176.282 387.095 176.902 387.715 177.667 387.715Z" fill="white" fill-opacity="0.13"/>
<path d="M207.278 387.715C208.043 387.715 208.663 387.095 208.663 386.33C208.663 385.565 208.043 384.944 207.278 384.944C206.513 384.944 205.893 385.565 205.893 386.33C205.893 387.095 206.513 387.715 207.278 387.715Z" fill="white" fill-opacity="0.13"/>
<path d="M236.889 387.715C237.654 387.715 238.274 387.095 238.274 386.33C238.274 385.565 237.654 384.944 236.889 384.944C236.124 384.944 235.504 385.565 235.504 386.33C235.504 387.095 236.124 387.715 236.889 387.715Z" fill="white" fill-opacity="0.13"/>
<path d="M266.5 387.715C267.265 387.715 267.885 387.095 267.885 386.33C267.885 385.565 267.265 384.944 266.5 384.944C265.735 384.944 265.115 385.565 265.115 386.33C265.115 387.095 265.735 387.715 266.5 387.715Z" fill="white" fill-opacity="0.13"/>
<path d="M296.111 387.715C296.876 387.715 297.496 387.095 297.496 386.33C297.496 385.565 296.876 384.944 296.111 384.944C295.346 384.944 294.726 385.565 294.726 386.33C294.726 387.095 295.346 387.715 296.111 387.715Z" fill="white" fill-opacity="0.13"/>
<path d="M325.722 387.715C326.487 387.715 327.107 387.095 327.107 386.33C327.107 385.565 326.487 384.944 325.722 384.944C324.957 384.944 324.337 385.565 324.337 386.33C324.337 387.095 324.957 387.715 325.722 387.715Z" fill="white" fill-opacity="0.13"/>
<path d="M355.333 387.715C356.098 387.715 356.718 387.095 356.718 386.33C356.718 385.565 356.098 384.944 355.333 384.944C354.568 384.944 353.948 385.565 353.948 386.33C353.948 387.095 354.568 387.715 355.333 387.715Z" fill="white" fill-opacity="0.13"/>
<path d="M384.944 387.715C385.709 387.715 386.33 387.095 386.33 386.33C386.33 385.565 385.709 384.944 384.944 384.944C384.179 384.944 383.559 385.565 383.559 386.33C383.559 387.095 384.179 387.715 384.944 387.715Z" fill="white" fill-opacity="0.13"/>
<path d="M414.556 387.715C415.321 387.715 415.941 387.095 415.941 386.33C415.941 385.565 415.321 384.944 414.556 384.944C413.791 384.944 413.17 385.565 413.17 386.33C413.17 387.095 413.791 387.715 414.556 387.715Z" fill="white" fill-opacity="0.13"/>
<path d="M444.167 387.715C444.932 387.715 445.552 387.095 445.552 386.33C445.552 385.565 444.932 384.944 444.167 384.944C443.402 384.944 442.782 385.565 442.782 386.33C442.782 387.095 443.402 387.715 444.167 387.715Z" fill="white" fill-opacity="0.13"/>
<path d="M473.778 387.715C474.543 387.715 475.163 387.095 475.163 386.33C475.163 385.565 474.543 384.944 473.778 384.944C473.013 384.944 472.393 385.565 472.393 386.33C472.393 387.095 473.013 387.715 473.778 387.715Z" fill="white" fill-opacity="0.13"/>
<path d="M503.389 387.715C504.154 387.715 504.774 387.095 504.774 386.33C504.774 385.565 504.154 384.944 503.389 384.944C502.624 384.944 502.004 385.565 502.004 386.33C502.004 387.095 502.624 387.715 503.389 387.715Z" fill="white" fill-opacity="0.13"/>
<path d="M533 387.715C533.765 387.715 534.385 387.095 534.385 386.33C534.385 385.565 533.765 384.944 533 384.944C532.235 384.944 531.615 385.565 531.615 386.33C531.615 387.095 532.235 387.715 533 387.715Z" fill="white" fill-opacity="0.13"/>
<path d="M2.7895e-05 417.326C0.764997 417.326 1.38513 416.706 1.38513 415.941C1.38513 415.176 0.764997 414.556 2.7895e-05 414.556C-0.764941 414.556 -1.38507 415.176 -1.38507 415.941C-1.38507 416.706 -0.764941 417.326 2.7895e-05 417.326Z" fill="white" fill-opacity="0.13"/>
<path d="M29.6111 417.326C30.3761 417.326 30.9962 416.706 30.9962 415.941C30.9962 415.176 30.3761 414.556 29.6111 414.556C28.8461 414.556 28.226 415.176 28.226 415.941C28.226 416.706 28.8461 417.326 29.6111 417.326Z" fill="white" fill-opacity="0.13"/>
<path d="M59.2223 417.326C59.9872 417.326 60.6074 416.706 60.6074 415.941C60.6074 415.176 59.9872 414.556 59.2223 414.556C58.4573 414.556 57.8372 415.176 57.8372 415.941C57.8372 416.706 58.4573 417.326 59.2223 417.326Z" fill="white" fill-opacity="0.13"/>
<path d="M88.8333 417.326C89.5983 417.326 90.2184 416.706 90.2184 415.941C90.2184 415.176 89.5983 414.556 88.8333 414.556C88.0684 414.556 87.4482 415.176 87.4482 415.941C87.4482 416.706 88.0684 417.326 88.8333 417.326Z" fill="white" fill-opacity="0.13"/>
<path d="M118.444 417.326C119.209 417.326 119.83 416.706 119.83 415.941C119.83 415.176 119.209 414.556 118.444 414.556C117.68 414.556 117.059 415.176 117.059 415.941C117.059 416.706 117.68 417.326 118.444 417.326Z" fill="white" fill-opacity="0.13"/>
<path d="M148.056 417.326C148.821 417.326 149.441 416.706 149.441 415.941C149.441 415.176 148.821 414.556 148.056 414.556C147.291 414.556 146.67 415.176 146.67 415.941C146.67 416.706 147.291 417.326 148.056 417.326Z" fill="white" fill-opacity="0.13"/>
<path d="M177.667 417.326C178.432 417.326 179.052 416.706 179.052 415.941C179.052 415.176 178.432 414.556 177.667 414.556C176.902 414.556 176.282 415.176 176.282 415.941C176.282 416.706 176.902 417.326 177.667 417.326Z" fill="white" fill-opacity="0.13"/>
<path d="M207.278 417.326C208.043 417.326 208.663 416.706 208.663 415.941C208.663 415.176 208.043 414.556 207.278 414.556C206.513 414.556 205.893 415.176 205.893 415.941C205.893 416.706 206.513 417.326 207.278 417.326Z" fill="white" fill-opacity="0.13"/>
<path d="M236.889 417.326C237.654 417.326 238.274 416.706 238.274 415.941C238.274 415.176 237.654 414.556 236.889 414.556C236.124 414.556 235.504 415.176 235.504 415.941C235.504 416.706 236.124 417.326 236.889 417.326Z" fill="white" fill-opacity="0.13"/>
<path d="M266.5 417.326C267.265 417.326 267.885 416.706 267.885 415.941C267.885 415.176 267.265 414.556 266.5 414.556C265.735 414.556 265.115 415.176 265.115 415.941C265.115 416.706 265.735 417.326 266.5 417.326Z" fill="white" fill-opacity="0.13"/>
<path d="M296.111 417.326C296.876 417.326 297.496 416.706 297.496 415.941C297.496 415.176 296.876 414.556 296.111 414.556C295.346 414.556 294.726 415.176 294.726 415.941C294.726 416.706 295.346 417.326 296.111 417.326Z" fill="white" fill-opacity="0.13"/>
<path d="M325.722 417.326C326.487 417.326 327.107 416.706 327.107 415.941C327.107 415.176 326.487 414.556 325.722 414.556C324.957 414.556 324.337 415.176 324.337 415.941C324.337 416.706 324.957 417.326 325.722 417.326Z" fill="white" fill-opacity="0.13"/>
<path d="M355.333 417.326C356.098 417.326 356.718 416.706 356.718 415.941C356.718 415.176 356.098 414.556 355.333 414.556C354.568 414.556 353.948 415.176 353.948 415.941C353.948 416.706 354.568 417.326 355.333 417.326Z" fill="white" fill-opacity="0.13"/>
<path d="M384.944 417.326C385.709 417.326 386.33 416.706 386.33 415.941C386.33 415.176 385.709 414.556 384.944 414.556C384.179 414.556 383.559 415.176 383.559 415.941C383.559 416.706 384.179 417.326 384.944 417.326Z" fill="white" fill-opacity="0.13"/>
<path d="M414.556 417.326C415.321 417.326 415.941 416.706 415.941 415.941C415.941 415.176 415.321 414.556 414.556 414.556C413.791 414.556 413.17 415.176 413.17 415.941C413.17 416.706 413.791 417.326 414.556 417.326Z" fill="white" fill-opacity="0.13"/>
<path d="M444.167 417.326C444.932 417.326 445.552 416.706 445.552 415.941C445.552 415.176 444.932 414.556 444.167 414.556C443.402 414.556 442.782 415.176 442.782 415.941C442.782 416.706 443.402 417.326 444.167 417.326Z" fill="white" fill-opacity="0.13"/>
<path d="M473.778 417.326C474.543 417.326 475.163 416.706 475.163 415.941C475.163 415.176 474.543 414.556 473.778 414.556C473.013 414.556 472.393 415.176 472.393 415.941C472.393 416.706 473.013 417.326 473.778 417.326Z" fill="white" fill-opacity="0.13"/>
<path d="M503.389 417.326C504.154 417.326 504.774 416.706 504.774 415.941C504.774 415.176 504.154 414.556 503.389 414.556C502.624 414.556 502.004 415.176 502.004 415.941C502.004 416.706 502.624 417.326 503.389 417.326Z" fill="white" fill-opacity="0.13"/>
<path d="M533 417.326C533.765 417.326 534.385 416.706 534.385 415.941C534.385 415.176 533.765 414.556 533 414.556C532.235 414.556 531.615 415.176 531.615 415.941C531.615 416.706 532.235 417.326 533 417.326Z" fill="white" fill-opacity="0.13"/>
<path d="M2.7895e-05 446.937C0.764997 446.937 1.38513 446.317 1.38513 445.552C1.38513 444.787 0.764997 444.167 2.7895e-05 444.167C-0.764941 444.167 -1.38507 444.787 -1.38507 445.552C-1.38507 446.317 -0.764941 446.937 2.7895e-05 446.937Z" fill="white" fill-opacity="0.13"/>
<path d="M29.6111 446.937C30.3761 446.937 30.9962 446.317 30.9962 445.552C30.9962 444.787 30.3761 444.167 29.6111 444.167C28.8461 444.167 28.226 444.787 28.226 445.552C28.226 446.317 28.8461 446.937 29.6111 446.937Z" fill="white" fill-opacity="0.13"/>
<path d="M59.2223 446.937C59.9872 446.937 60.6074 446.317 60.6074 445.552C60.6074 444.787 59.9872 444.167 59.2223 444.167C58.4573 444.167 57.8372 444.787 57.8372 445.552C57.8372 446.317 58.4573 446.937 59.2223 446.937Z" fill="white" fill-opacity="0.13"/>
<path d="M88.8333 446.937C89.5983 446.937 90.2184 446.317 90.2184 445.552C90.2184 444.787 89.5983 444.167 88.8333 444.167C88.0684 444.167 87.4482 444.787 87.4482 445.552C87.4482 446.317 88.0684 446.937 88.8333 446.937Z" fill="white" fill-opacity="0.13"/>
<path d="M118.444 446.937C119.209 446.937 119.83 446.317 119.83 445.552C119.83 444.787 119.209 444.167 118.444 444.167C117.68 444.167 117.059 444.787 117.059 445.552C117.059 446.317 117.68 446.937 118.444 446.937Z" fill="white" fill-opacity="0.13"/>
<path d="M148.056 446.937C148.821 446.937 149.441 446.317 149.441 445.552C149.441 444.787 148.821 444.167 148.056 444.167C147.291 444.167 146.67 444.787 146.67 445.552C146.67 446.317 147.291 446.937 148.056 446.937Z" fill="white" fill-opacity="0.13"/>
<path d="M177.667 446.937C178.432 446.937 179.052 446.317 179.052 445.552C179.052 444.787 178.432 444.167 177.667 444.167C176.902 444.167 176.282 444.787 176.282 445.552C176.282 446.317 176.902 446.937 177.667 446.937Z" fill="white" fill-opacity="0.13"/>
<path d="M207.278 446.937C208.043 446.937 208.663 446.317 208.663 445.552C208.663 444.787 208.043 444.167 207.278 444.167C206.513 444.167 205.893 444.787 205.893 445.552C205.893 446.317 206.513 446.937 207.278 446.937Z" fill="white" fill-opacity="0.13"/>
<path d="M236.889 446.937C237.654 446.937 238.274 446.317 238.274 445.552C238.274 444.787 237.654 444.167 236.889 444.167C236.124 444.167 235.504 444.787 235.504 445.552C235.504 446.317 236.124 446.937 236.889 446.937Z" fill="white" fill-opacity="0.13"/>
<path d="M266.5 446.937C267.265 446.937 267.885 446.317 267.885 445.552C267.885 444.787 267.265 444.167 266.5 444.167C265.735 444.167 265.115 444.787 265.115 445.552C265.115 446.317 265.735 446.937 266.5 446.937Z" fill="white" fill-opacity="0.13"/>
<path d="M296.111 446.937C296.876 446.937 297.496 446.317 297.496 445.552C297.496 444.787 296.876 444.167 296.111 444.167C295.346 444.167 294.726 444.787 294.726 445.552C294.726 446.317 295.346 446.937 296.111 446.937Z" fill="white" fill-opacity="0.13"/>
<path d="M325.722 446.937C326.487 446.937 327.107 446.317 327.107 445.552C327.107 444.787 326.487 444.167 325.722 444.167C324.957 444.167 324.337 444.787 324.337 445.552C324.337 446.317 324.957 446.937 325.722 446.937Z" fill="white" fill-opacity="0.13"/>
<path d="M355.333 446.937C356.098 446.937 356.718 446.317 356.718 445.552C356.718 444.787 356.098 444.167 355.333 444.167C354.568 444.167 353.948 444.787 353.948 445.552C353.948 446.317 354.568 446.937 355.333 446.937Z" fill="white" fill-opacity="0.13"/>
<path d="M384.944 446.937C385.709 446.937 386.33 446.317 386.33 445.552C386.33 444.787 385.709 444.167 384.944 444.167C384.179 444.167 383.559 444.787 383.559 445.552C383.559 446.317 384.179 446.937 384.944 446.937Z" fill="white" fill-opacity="0.13"/>
<path d="M414.556 446.937C415.321 446.937 415.941 446.317 415.941 445.552C415.941 444.787 415.321 444.167 414.556 444.167C413.791 444.167 413.17 444.787 413.17 445.552C413.17 446.317 413.791 446.937 414.556 446.937Z" fill="white" fill-opacity="0.13"/>
<path d="M444.167 446.937C444.932 446.937 445.552 446.317 445.552 445.552C445.552 444.787 444.932 444.167 444.167 444.167C443.402 444.167 442.782 444.787 442.782 445.552C442.782 446.317 443.402 446.937 444.167 446.937Z" fill="white" fill-opacity="0.13"/>
<path d="M473.778 446.937C474.543 446.937 475.163 446.317 475.163 445.552C475.163 444.787 474.543 444.167 473.778 444.167C473.013 444.167 472.393 444.787 472.393 445.552C472.393 446.317 473.013 446.937 473.778 446.937Z" fill="white" fill-opacity="0.13"/>
<path d="M503.389 446.937C504.154 446.937 504.774 446.317 504.774 445.552C504.774 444.787 504.154 444.167 503.389 444.167C502.624 444.167 502.004 444.787 502.004 445.552C502.004 446.317 502.624 446.937 503.389 446.937Z" fill="white" fill-opacity="0.13"/>
<path d="M533 446.937C533.765 446.937 534.385 446.317 534.385 445.552C534.385 444.787 533.765 444.167 533 444.167C532.235 444.167 531.615 444.787 531.615 445.552C531.615 446.317 532.235 446.937 533 446.937Z" fill="white" fill-opacity="0.13"/>
<path d="M2.7895e-05 476.548C0.764997 476.548 1.38513 475.928 1.38513 475.163C1.38513 474.398 0.764997 473.778 2.7895e-05 473.778C-0.764941 473.778 -1.38507 474.398 -1.38507 475.163C-1.38507 475.928 -0.764941 476.548 2.7895e-05 476.548Z" fill="white" fill-opacity="0.13"/>
<path d="M29.6111 476.548C30.3761 476.548 30.9962 475.928 30.9962 475.163C30.9962 474.398 30.3761 473.778 29.6111 473.778C28.8461 473.778 28.226 474.398 28.226 475.163C28.226 475.928 28.8461 476.548 29.6111 476.548Z" fill="white" fill-opacity="0.13"/>
<path d="M59.2223 476.548C59.9872 476.548 60.6074 475.928 60.6074 475.163C60.6074 474.398 59.9872 473.778 59.2223 473.778C58.4573 473.778 57.8372 474.398 57.8372 475.163C57.8372 475.928 58.4573 476.548 59.2223 476.548Z" fill="white" fill-opacity="0.13"/>
<path d="M88.8333 476.548C89.5983 476.548 90.2184 475.928 90.2184 475.163C90.2184 474.398 89.5983 473.778 88.8333 473.778C88.0684 473.778 87.4482 474.398 87.4482 475.163C87.4482 475.928 88.0684 476.548 88.8333 476.548Z" fill="white" fill-opacity="0.13"/>
<path d="M118.444 476.548C119.209 476.548 119.83 475.928 119.83 475.163C119.83 474.398 119.209 473.778 118.444 473.778C117.68 473.778 117.059 474.398 117.059 475.163C117.059 475.928 117.68 476.548 118.444 476.548Z" fill="white" fill-opacity="0.13"/>
<path d="M148.056 476.548C148.821 476.548 149.441 475.928 149.441 475.163C149.441 474.398 148.821 473.778 148.056 473.778C147.291 473.778 146.67 474.398 146.67 475.163C146.67 475.928 147.291 476.548 148.056 476.548Z" fill="white" fill-opacity="0.13"/>
<path d="M177.667 476.548C178.432 476.548 179.052 475.928 179.052 475.163C179.052 474.398 178.432 473.778 177.667 473.778C176.902 473.778 176.282 474.398 176.282 475.163C176.282 475.928 176.902 476.548 177.667 476.548Z" fill="white" fill-opacity="0.13"/>
<path d="M207.278 476.548C208.043 476.548 208.663 475.928 208.663 475.163C208.663 474.398 208.043 473.778 207.278 473.778C206.513 473.778 205.893 474.398 205.893 475.163C205.893 475.928 206.513 476.548 207.278 476.548Z" fill="white" fill-opacity="0.13"/>
<path d="M236.889 476.548C237.654 476.548 238.274 475.928 238.274 475.163C238.274 474.398 237.654 473.778 236.889 473.778C236.124 473.778 235.504 474.398 235.504 475.163C235.504 475.928 236.124 476.548 236.889 476.548Z" fill="white" fill-opacity="0.13"/>
<path d="M266.5 476.548C267.265 476.548 267.885 475.928 267.885 475.163C267.885 474.398 267.265 473.778 266.5 473.778C265.735 473.778 265.115 474.398 265.115 475.163C265.115 475.928 265.735 476.548 266.5 476.548Z" fill="white" fill-opacity="0.13"/>
<path d="M296.111 476.548C296.876 476.548 297.496 475.928 297.496 475.163C297.496 474.398 296.876 473.778 296.111 473.778C295.346 473.778 294.726 474.398 294.726 475.163C294.726 475.928 295.346 476.548 296.111 476.548Z" fill="white" fill-opacity="0.13"/>
<path d="M325.722 476.548C326.487 476.548 327.107 475.928 327.107 475.163C327.107 474.398 326.487 473.778 325.722 473.778C324.957 473.778 324.337 474.398 324.337 475.163C324.337 475.928 324.957 476.548 325.722 476.548Z" fill="white" fill-opacity="0.13"/>
<path d="M355.333 476.548C356.098 476.548 356.718 475.928 356.718 475.163C356.718 474.398 356.098 473.778 355.333 473.778C354.568 473.778 353.948 474.398 353.948 475.163C353.948 475.928 354.568 476.548 355.333 476.548Z" fill="white" fill-opacity="0.13"/>
<path d="M384.944 476.548C385.709 476.548 386.33 475.928 386.33 475.163C386.33 474.398 385.709 473.778 384.944 473.778C384.179 473.778 383.559 474.398 383.559 475.163C383.559 475.928 384.179 476.548 384.944 476.548Z" fill="white" fill-opacity="0.13"/>
<path d="M414.556 476.548C415.321 476.548 415.941 475.928 415.941 475.163C415.941 474.398 415.321 473.778 414.556 473.778C413.791 473.778 413.17 474.398 413.17 475.163C413.17 475.928 413.791 476.548 414.556 476.548Z" fill="white" fill-opacity="0.13"/>
<path d="M444.167 476.548C444.932 476.548 445.552 475.928 445.552 475.163C445.552 474.398 444.932 473.778 444.167 473.778C443.402 473.778 442.782 474.398 442.782 475.163C442.782 475.928 443.402 476.548 444.167 476.548Z" fill="white" fill-opacity="0.13"/>
<path d="M473.778 476.548C474.543 476.548 475.163 475.928 475.163 475.163C475.163 474.398 474.543 473.778 473.778 473.778C473.013 473.778 472.393 474.398 472.393 475.163C472.393 475.928 473.013 476.548 473.778 476.548Z" fill="white" fill-opacity="0.13"/>
<path d="M503.389 476.548C504.154 476.548 504.774 475.928 504.774 475.163C504.774 474.398 504.154 473.778 503.389 473.778C502.624 473.778 502.004 474.398 502.004 475.163C502.004 475.928 502.624 476.548 503.389 476.548Z" fill="white" fill-opacity="0.13"/>
<path d="M533 476.548C533.765 476.548 534.385 475.928 534.385 475.163C534.385 474.398 533.765 473.778 533 473.778C532.235 473.778 531.615 474.398 531.615 475.163C531.615 475.928 532.235 476.548 533 476.548Z" fill="white" fill-opacity="0.13"/>
<path d="M2.7895e-05 506.159C0.764997 506.159 1.38513 505.539 1.38513 504.774C1.38513 504.009 0.764997 503.389 2.7895e-05 503.389C-0.764941 503.389 -1.38507 504.009 -1.38507 504.774C-1.38507 505.539 -0.764941 506.159 2.7895e-05 506.159Z" fill="white" fill-opacity="0.13"/>
<path d="M29.6111 506.159C30.3761 506.159 30.9962 505.539 30.9962 504.774C30.9962 504.009 30.3761 503.389 29.6111 503.389C28.8461 503.389 28.226 504.009 28.226 504.774C28.226 505.539 28.8461 506.159 29.6111 506.159Z" fill="white" fill-opacity="0.13"/>
<path d="M59.2223 506.159C59.9872 506.159 60.6074 505.539 60.6074 504.774C60.6074 504.009 59.9872 503.389 59.2223 503.389C58.4573 503.389 57.8372 504.009 57.8372 504.774C57.8372 505.539 58.4573 506.159 59.2223 506.159Z" fill="white" fill-opacity="0.13"/>
<path d="M88.8333 506.159C89.5983 506.159 90.2184 505.539 90.2184 504.774C90.2184 504.009 89.5983 503.389 88.8333 503.389C88.0684 503.389 87.4482 504.009 87.4482 504.774C87.4482 505.539 88.0684 506.159 88.8333 506.159Z" fill="white" fill-opacity="0.13"/>
<path d="M118.444 506.159C119.209 506.159 119.83 505.539 119.83 504.774C119.83 504.009 119.209 503.389 118.444 503.389C117.68 503.389 117.059 504.009 117.059 504.774C117.059 505.539 117.68 506.159 118.444 506.159Z" fill="white" fill-opacity="0.13"/>
<path d="M148.056 506.159C148.821 506.159 149.441 505.539 149.441 504.774C149.441 504.009 148.821 503.389 148.056 503.389C147.291 503.389 146.67 504.009 146.67 504.774C146.67 505.539 147.291 506.159 148.056 506.159Z" fill="white" fill-opacity="0.13"/>
<path d="M177.667 506.159C178.432 506.159 179.052 505.539 179.052 504.774C179.052 504.009 178.432 503.389 177.667 503.389C176.902 503.389 176.282 504.009 176.282 504.774C176.282 505.539 176.902 506.159 177.667 506.159Z" fill="white" fill-opacity="0.13"/>
<path d="M207.278 506.159C208.043 506.159 208.663 505.539 208.663 504.774C208.663 504.009 208.043 503.389 207.278 503.389C206.513 503.389 205.893 504.009 205.893 504.774C205.893 505.539 206.513 506.159 207.278 506.159Z" fill="white" fill-opacity="0.13"/>
<path d="M236.889 506.159C237.654 506.159 238.274 505.539 238.274 504.774C238.274 504.009 237.654 503.389 236.889 503.389C236.124 503.389 235.504 504.009 235.504 504.774C235.504 505.539 236.124 506.159 236.889 506.159Z" fill="white" fill-opacity="0.13"/>
<path d="M266.5 506.159C267.265 506.159 267.885 505.539 267.885 504.774C267.885 504.009 267.265 503.389 266.5 503.389C265.735 503.389 265.115 504.009 265.115 504.774C265.115 505.539 265.735 506.159 266.5 506.159Z" fill="white" fill-opacity="0.13"/>
<path d="M296.111 506.159C296.876 506.159 297.496 505.539 297.496 504.774C297.496 504.009 296.876 503.389 296.111 503.389C295.346 503.389 294.726 504.009 294.726 504.774C294.726 505.539 295.346 506.159 296.111 506.159Z" fill="white" fill-opacity="0.13"/>
<path d="M325.722 506.159C326.487 506.159 327.107 505.539 327.107 504.774C327.107 504.009 326.487 503.389 325.722 503.389C324.957 503.389 324.337 504.009 324.337 504.774C324.337 505.539 324.957 506.159 325.722 506.159Z" fill="white" fill-opacity="0.13"/>
<path d="M355.333 506.159C356.098 506.159 356.718 505.539 356.718 504.774C356.718 504.009 356.098 503.389 355.333 503.389C354.568 503.389 353.948 504.009 353.948 504.774C353.948 505.539 354.568 506.159 355.333 506.159Z" fill="white" fill-opacity="0.13"/>
<path d="M384.944 506.159C385.709 506.159 386.33 505.539 386.33 504.774C386.33 504.009 385.709 503.389 384.944 503.389C384.179 503.389 383.559 504.009 383.559 504.774C383.559 505.539 384.179 506.159 384.944 506.159Z" fill="white" fill-opacity="0.13"/>
<path d="M414.556 506.159C415.321 506.159 415.941 505.539 415.941 504.774C415.941 504.009 415.321 503.389 414.556 503.389C413.791 503.389 413.17 504.009 413.17 504.774C413.17 505.539 413.791 506.159 414.556 506.159Z" fill="white" fill-opacity="0.13"/>
<path d="M444.167 506.159C444.932 506.159 445.552 505.539 445.552 504.774C445.552 504.009 444.932 503.389 444.167 503.389C443.402 503.389 442.782 504.009 442.782 504.774C442.782 505.539 443.402 506.159 444.167 506.159Z" fill="white" fill-opacity="0.13"/>
<path d="M473.778 506.159C474.543 506.159 475.163 505.539 475.163 504.774C475.163 504.009 474.543 503.389 473.778 503.389C473.013 503.389 472.393 504.009 472.393 504.774C472.393 505.539 473.013 506.159 473.778 506.159Z" fill="white" fill-opacity="0.13"/>
<path d="M503.389 506.159C504.154 506.159 504.774 505.539 504.774 504.774C504.774 504.009 504.154 503.389 503.389 503.389C502.624 503.389 502.004 504.009 502.004 504.774C502.004 505.539 502.624 506.159 503.389 506.159Z" fill="white" fill-opacity="0.13"/>
<path d="M533 506.159C533.765 506.159 534.385 505.539 534.385 504.774C534.385 504.009 533.765 503.389 533 503.389C532.235 503.389 531.615 504.009 531.615 504.774C531.615 505.539 532.235 506.159 533 506.159Z" fill="white" fill-opacity="0.13"/>
</svg>
